<svg width="49" height="36" viewBox="0 0 49 36" fill="none" xmlns="http://www.w3.org/2000/svg">
<g clip-path="url(#clip0_115_2954)">
<path d="M31.1592 26.9811V35.5055H9.78159C7.3459 35.5055 5.3642 33.5934 5.3642 31.2433C5.3642 28.8932 7.3459 26.9811 9.78159 26.9811H31.1592Z" fill="#F2F2F2"/>
<path d="M31.6843 35.4399C31.6843 35.5269 31.6497 35.6102 31.5881 35.6717C31.5266 35.7332 31.4431 35.7677 31.3561 35.7678H9.4008C8.20837 35.7678 7.06477 35.2945 6.2216 34.4522C5.37842 33.6098 4.90472 32.4674 4.90472 31.2761C4.90472 30.0848 5.37842 28.9423 6.2216 28.1C7.06477 27.2576 8.20837 26.7844 9.4008 26.7844H31.3561C31.4432 26.7844 31.5266 26.8189 31.5882 26.8804C31.6497 26.9419 31.6843 27.0253 31.6843 27.1123C31.6843 27.1992 31.6497 27.2826 31.5882 27.3441C31.5266 27.4056 31.4432 27.4401 31.3561 27.4401H9.4008C8.38245 27.4401 7.4058 27.8443 6.68571 28.5637C5.96563 29.283 5.56109 30.2587 5.56109 31.2761C5.56109 32.2934 5.96563 33.2691 6.68571 33.9885C7.4058 34.7079 8.38245 35.112 9.4008 35.112H31.3561C31.4431 35.1121 31.5266 35.1466 31.5881 35.2081C31.6497 35.2696 31.6843 35.353 31.6843 35.4399Z" fill="#009092"/>
<path d="M31.1592 28.9483H8.18655C8.16914 28.9483 8.15245 28.9414 8.14014 28.9291C8.12783 28.9168 8.12091 28.9001 8.12091 28.8827C8.12091 28.8653 8.12783 28.8486 8.14014 28.8363C8.15245 28.824 8.16914 28.8171 8.18655 28.8171H31.1592C31.1766 28.8171 31.1933 28.824 31.2056 28.8363C31.2179 28.8486 31.2249 28.8653 31.2249 28.8827C31.2249 28.9001 31.2179 28.9168 31.2056 28.9291C31.1933 28.9414 31.1766 28.9483 31.1592 28.9483Z" fill="#CCCCCC"/>
<path d="M31.1592 30.522H8.18655C8.16914 30.522 8.15245 30.5151 8.14014 30.5028C8.12783 30.4905 8.12091 30.4738 8.12091 30.4564C8.12091 30.439 8.12783 30.4224 8.14014 30.4101C8.15245 30.3978 8.16914 30.3909 8.18655 30.3909H31.1592C31.1766 30.3909 31.1933 30.3978 31.2056 30.4101C31.2179 30.4224 31.2249 30.439 31.2249 30.4564C31.2249 30.4738 31.2179 30.4905 31.2056 30.5028C31.1933 30.5151 31.1766 30.522 31.1592 30.522Z" fill="#CCCCCC"/>
<path d="M31.1592 32.0957H8.18655C8.16914 32.0957 8.15245 32.0888 8.14014 32.0765C8.12783 32.0642 8.12091 32.0475 8.12091 32.0302C8.12091 32.0128 8.12783 31.9961 8.14014 31.9838C8.15245 31.9715 8.16914 31.9646 8.18655 31.9646H31.1592C31.1766 31.9646 31.1933 31.9715 31.2056 31.9838C31.2179 31.9961 31.2249 32.0128 31.2249 32.0302C31.2249 32.0475 31.2179 32.0642 31.2056 32.0765C31.1933 32.0888 31.1766 32.0957 31.1592 32.0957Z" fill="#CCCCCC"/>
<path d="M31.1592 33.6695H8.18655C8.16914 33.6695 8.15245 33.6625 8.14014 33.6503C8.12783 33.638 8.12091 33.6213 8.12091 33.6039C8.12091 33.5865 8.12783 33.5698 8.14014 33.5575C8.15245 33.5452 8.16914 33.5383 8.18655 33.5383H31.1592C31.1766 33.5383 31.1933 33.5452 31.2056 33.5575C31.2179 33.5698 31.2249 33.5865 31.2249 33.6039C31.2249 33.6213 31.2179 33.638 31.2056 33.6503C31.1933 33.6625 31.1766 33.6695 31.1592 33.6695Z" fill="#CCCCCC"/>
<path d="M47.681 28.5857L42.3274 35.2235L25.681 21.8238C23.7844 20.2971 23.4421 17.5661 24.9181 15.7361C26.394 13.9061 29.138 13.6594 31.0346 15.1861L47.681 28.5857Z" fill="#F2F2F2"/>
<path d="M42.7775 35.5015C42.7228 35.5692 42.6435 35.6125 42.557 35.6218C42.4705 35.6311 42.3838 35.6057 42.316 35.5511L25.2198 21.7894C24.2913 21.042 23.698 19.9567 23.5705 18.7722C23.4429 17.5878 23.7916 16.4012 24.5398 15.4736C25.2879 14.546 26.3743 13.9533 27.5599 13.8259C28.7455 13.6985 29.9332 14.0468 30.8617 14.7942L47.9579 28.556C47.9915 28.583 48.0194 28.6163 48.0401 28.6541C48.0608 28.6919 48.0738 28.7334 48.0784 28.7762C48.083 28.819 48.0792 28.8624 48.067 28.9037C48.0549 28.945 48.0347 28.9836 48.0077 29.0171C47.9806 29.0506 47.9472 29.0785 47.9094 29.0992C47.8715 29.1198 47.83 29.1328 47.7871 29.1374C47.7443 29.142 47.7009 29.1381 47.6595 29.1259C47.6182 29.1138 47.5796 29.0936 47.5461 29.0666L30.4499 15.3048C30.0573 14.9885 29.6061 14.7526 29.1222 14.6105C28.6383 14.4685 28.1311 14.423 27.6297 14.4768C27.1282 14.5306 26.6422 14.6826 26.1995 14.924C25.7569 15.1655 25.3661 15.4917 25.0497 15.8841C24.7332 16.2764 24.4973 16.7272 24.3552 17.2107C24.2132 17.6942 24.1679 18.2009 24.222 18.7019C24.276 19.2029 24.4283 19.6883 24.6702 20.1304C24.9121 20.5726 25.2388 20.9628 25.6317 21.2788L42.7278 35.0405C42.7956 35.0951 42.8388 35.1743 42.8482 35.2608C42.8575 35.3472 42.832 35.4338 42.7775 35.5015Z" fill="#CCCCCC"/>
<path d="M46.4455 30.1175L28.5572 15.7181C28.5505 15.7127 28.5449 15.706 28.5407 15.6984C28.5366 15.6909 28.534 15.6826 28.5331 15.674C28.5322 15.6655 28.5329 15.6568 28.5354 15.6485C28.5378 15.6403 28.5418 15.6326 28.5472 15.6259C28.5526 15.6192 28.5593 15.6136 28.5669 15.6095C28.5745 15.6053 28.5828 15.6027 28.5913 15.6018C28.5999 15.6009 28.6086 15.6017 28.6168 15.6041C28.6251 15.6065 28.6328 15.6105 28.6395 15.616L46.5279 30.0154C46.5346 30.0208 46.5402 30.0275 46.5444 30.035C46.5485 30.0426 46.5511 30.0509 46.552 30.0594C46.553 30.068 46.5522 30.0767 46.5498 30.085C46.5473 30.0932 46.5433 30.1009 46.5379 30.1076C46.5325 30.1144 46.5258 30.1199 46.5182 30.1241C46.5107 30.1282 46.5023 30.1308 46.4938 30.1317C46.4852 30.1326 46.4765 30.1318 46.4682 30.1294C46.46 30.127 46.4522 30.1229 46.4455 30.1175V30.1175Z" fill="#CCCCCC"/>
<path d="M45.4572 31.3429L27.5688 16.9435C27.5553 16.9326 27.5467 16.9167 27.5448 16.8995C27.543 16.8822 27.5481 16.8649 27.559 16.8513C27.5699 16.8378 27.5857 16.8292 27.603 16.8273C27.6203 16.8254 27.6376 16.8305 27.6512 16.8414L45.5396 31.2408C45.5463 31.2462 45.5519 31.2529 45.556 31.2604C45.5602 31.268 45.5628 31.2763 45.5637 31.2849C45.5646 31.2934 45.5638 31.3021 45.5614 31.3104C45.559 31.3187 45.555 31.3264 45.5495 31.3331C45.5441 31.3398 45.5374 31.3454 45.5299 31.3495C45.5223 31.3536 45.514 31.3562 45.5054 31.3571C45.4968 31.358 45.4882 31.3573 45.4799 31.3548C45.4716 31.3524 45.4639 31.3484 45.4572 31.3429Z" fill="#CCCCCC"/>
<path d="M44.4689 32.5684L26.5805 18.1689C26.5669 18.158 26.5583 18.1422 26.5564 18.1249C26.5545 18.1076 26.5596 18.0903 26.5706 18.0767C26.5815 18.0632 26.5973 18.0545 26.6146 18.0527C26.632 18.0508 26.6493 18.0559 26.6628 18.0668L44.5512 32.4663C44.5579 32.4717 44.5635 32.4783 44.5676 32.4859C44.5718 32.4934 44.5744 32.5017 44.5753 32.5103C44.5762 32.5189 44.5754 32.5275 44.573 32.5358C44.5706 32.544 44.5665 32.5517 44.5611 32.5585C44.5557 32.5652 44.5491 32.5707 44.5415 32.5749C44.5339 32.579 44.5256 32.5816 44.5171 32.5825C44.5085 32.5834 44.4998 32.5827 44.4915 32.5802C44.4833 32.5778 44.4756 32.5738 44.4689 32.5684V32.5684Z" fill="#CCCCCC"/>
<path d="M43.4804 33.7938L25.5921 19.3944C25.5854 19.389 25.5798 19.3823 25.5757 19.3747C25.5715 19.3672 25.5689 19.3589 25.568 19.3503C25.5671 19.3418 25.5679 19.3331 25.5703 19.3248C25.5727 19.3166 25.5767 19.3089 25.5822 19.3022C25.5876 19.2955 25.5942 19.2899 25.6018 19.2858C25.6094 19.2816 25.6177 19.279 25.6262 19.2781C25.6348 19.2772 25.6435 19.278 25.6518 19.2804C25.66 19.2828 25.6677 19.2868 25.6744 19.2922L43.5628 33.6917C43.5695 33.6971 43.5751 33.7038 43.5793 33.7113C43.5834 33.7189 43.586 33.7272 43.5869 33.7357C43.5879 33.7443 43.5871 33.753 43.5847 33.7612C43.5823 33.7695 43.5782 33.7772 43.5728 33.7839C43.5674 33.7906 43.5607 33.7962 43.5531 33.8004C43.5456 33.8045 43.5373 33.8071 43.5287 33.808C43.5201 33.8089 43.5114 33.8081 43.5031 33.8057C43.4949 33.8033 43.4872 33.7992 43.4804 33.7938Z" fill="#CCCCCC"/>
<path d="M48.8079 35.8333H0.105797C0.0883895 35.8333 0.0716947 35.8264 0.0593855 35.8141C0.0470763 35.8018 0.0401611 35.7852 0.0401611 35.7678C0.0401611 35.7504 0.0470763 35.7337 0.0593855 35.7214C0.0716947 35.7091 0.0883895 35.7022 0.105797 35.7022H48.8079C48.8253 35.7022 48.842 35.7091 48.8543 35.7214C48.8666 35.7337 48.8735 35.7504 48.8735 35.7678C48.8735 35.7852 48.8666 35.8018 48.8543 35.8141C48.842 35.8264 48.8253 35.8333 48.8079 35.8333Z" fill="#CCCCCC"/>
<path d="M22.2305 26.0851L21.4802 26.0851L21.1233 23.1936L22.2308 23.1937L22.2305 26.0851Z" fill="#FFB8B8"/>
<path d="M20.9441 25.8709H22.3912V26.7812H20.033C20.033 26.6616 20.0565 26.5432 20.1023 26.4328C20.1481 26.3224 20.2152 26.222 20.2998 26.1375C20.3844 26.053 20.4849 25.9859 20.5954 25.9402C20.706 25.8944 20.8245 25.8709 20.9441 25.8709Z" fill="#2F2E41"/>
<path d="M14.5646 26.0851L13.8142 26.0851L13.4573 23.1936L14.5648 23.1937L14.5646 26.0851Z" fill="#FFB8B8"/>
<path d="M13.2782 25.8709H14.7253V26.7812H12.367C12.367 26.6616 12.3906 26.5432 12.4364 26.4328C12.4822 26.3224 12.5493 26.222 12.6339 26.1375C12.7185 26.053 12.8189 25.9859 12.9295 25.9402C13.04 25.8944 13.1585 25.8709 13.2782 25.8709Z" fill="#2F2E41"/>
<path d="M17.0709 4.63726V4.30939C17.0709 3.74854 17.2939 3.21066 17.6908 2.81408C18.0878 2.41749 18.6262 2.19469 19.1876 2.19469H19.1876C19.749 2.19469 20.2874 2.41749 20.6844 2.81408C21.0814 3.21066 21.3044 3.74854 21.3044 4.30939V4.63726C21.3044 5.04159 21.1436 5.42937 20.8574 5.71528C20.5712 6.00118 20.1831 6.16181 19.7784 6.16181H18.5969C18.3965 6.16181 18.1981 6.12237 18.0129 6.04576C17.8278 5.96914 17.6595 5.85684 17.5178 5.71528C17.3761 5.57371 17.2637 5.40564 17.187 5.22068C17.1103 5.03571 17.0709 4.83746 17.0709 4.63726Z" fill="#2F2E41"/>
<path d="M19.1876 6.27462C20.0779 6.27462 20.7997 5.55357 20.7997 4.66411C20.7997 3.77464 20.0779 3.05359 19.1876 3.05359C18.2973 3.05359 17.5755 3.77464 17.5755 4.66411C17.5755 5.55357 18.2973 6.27462 19.1876 6.27462Z" fill="#FFB8B8"/>
<path d="M10.4189 10.1992C10.4843 10.1375 10.5625 10.0909 10.6479 10.0626C10.7333 10.0344 10.8239 10.0251 10.9132 10.0356C11.0026 10.0461 11.0886 10.0761 11.1651 10.1233C11.2416 10.1706 11.3068 10.2341 11.3562 10.3092L12.7381 10.0481L13.1018 10.8484L11.145 11.1898C11.0131 11.2642 10.8585 11.2877 10.7104 11.2558C10.5623 11.2239 10.4311 11.1388 10.3416 11.0167C10.252 10.8946 10.2105 10.744 10.2247 10.5933C10.239 10.4426 10.3081 10.3024 10.4189 10.1992V10.1992Z" fill="#FFB8B8"/>
<path d="M17.9308 7.28887L17.9488 7.31623L15.6827 8.80762L11.8588 10.0275C11.8082 10.0437 11.7647 10.0771 11.7358 10.1218C11.7069 10.1665 11.6945 10.2198 11.7005 10.2726L11.7839 10.9904C11.7876 11.0222 11.7979 11.0528 11.8142 11.0804C11.8304 11.1079 11.8523 11.1318 11.8783 11.1504C11.9043 11.1691 11.9339 11.1821 11.9653 11.1886C11.9966 11.1951 12.029 11.195 12.0603 11.1883L15.6591 10.4177C15.8333 10.3806 15.998 10.3082 16.1429 10.2049L18.6888 8.39527C18.7811 8.32931 18.8548 8.24062 18.9026 8.13781C18.9504 8.035 18.9708 7.92158 18.9618 7.80857C18.9524 7.69541 18.9138 7.58662 18.8496 7.49291C18.7854 7.3992 18.6979 7.3238 18.5957 7.27413C18.4935 7.22445 18.3801 7.20221 18.2667 7.20959C18.1533 7.21697 18.0437 7.25372 17.9488 7.31623L17.9308 7.28887Z" fill="#CCCCCC"/>
<path d="M21.4936 25.2646C21.436 25.2646 21.3796 25.2479 21.3314 25.2164C21.2832 25.185 21.2452 25.1402 21.222 25.0875L17.782 16.5959C17.774 16.5774 17.7605 16.5619 17.7434 16.5514C17.7262 16.5408 17.7063 16.5358 17.6862 16.5369C17.6661 16.5381 17.6469 16.5453 17.6311 16.5577C17.6152 16.5701 17.6036 16.587 17.5977 16.6062L14.7912 24.8731C14.7793 24.9116 14.7597 24.9473 14.7336 24.9779C14.7074 25.0085 14.6753 25.0335 14.6391 25.0512C14.603 25.069 14.5636 25.0792 14.5233 25.0811C14.4831 25.0831 14.4429 25.0768 14.4051 25.0627L13.464 24.7101C13.4129 24.6912 13.3681 24.6584 13.3345 24.6155C13.301 24.5727 13.28 24.5213 13.2739 24.4672C12.8505 20.7826 16.5425 11.482 16.5799 11.3885L16.5902 11.3626L19.9559 12.1064L19.9629 12.114C21.3056 13.5774 22.4094 22.8076 22.617 24.6431C22.6247 24.7094 22.6096 24.7763 22.5742 24.8329C22.5387 24.8895 22.485 24.9323 22.422 24.9543L21.5913 25.2478C21.5599 25.2589 21.5269 25.2646 21.4936 25.2646Z" fill="#2F2E41"/>
<path d="M18.5937 12.4057C17.7783 12.4057 16.8692 12.2433 16.5893 11.5729L16.5829 11.5575L16.5916 11.5433C16.8125 11.1812 17.1044 10.5636 16.9475 10.4476C16.6384 10.2193 16.4884 9.84372 16.5017 9.33125C16.5306 8.21877 17.2894 7.23106 18.3898 6.87346H18.3898C18.697 6.77525 19.0096 6.69485 19.326 6.63265C19.5567 6.58615 19.7948 6.59126 20.0233 6.64763C20.2518 6.704 20.4649 6.81021 20.6474 6.95865C20.8322 7.10807 20.9816 7.29652 21.0848 7.51046C21.188 7.72441 21.2426 7.95854 21.2444 8.19604C21.256 9.38491 21.0728 11.0408 20.1344 12.1776C20.0904 12.2303 20.0292 12.2659 19.9616 12.278C19.5101 12.3596 19.0525 12.4023 18.5937 12.4057Z" fill="#CCCCCC"/>
<path d="M18.2904 12.3612C18.3347 12.2022 18.4402 12.0671 18.5837 11.9853C18.7272 11.9034 18.8973 11.8815 19.0569 11.9243C19.0895 11.9334 19.1213 11.9451 19.1519 11.9594L20.2012 11.0054L20.931 11.4966L19.4304 12.8232C19.3627 12.9452 19.256 13.0411 19.1274 13.0956C18.9988 13.1501 18.8556 13.1601 18.7207 13.1239C18.6421 13.1024 18.5685 13.0656 18.5043 13.0155C18.44 12.9654 18.3863 12.9032 18.3463 12.8322C18.3063 12.7613 18.2807 12.6832 18.2711 12.6023C18.2615 12.5215 18.2681 12.4395 18.2904 12.3612Z" fill="#FFB8B8"/>
<path d="M20.035 12.3733C19.9669 12.3734 19.9009 12.3499 19.8482 12.3068L19.4344 11.969C19.4 11.9408 19.3723 11.9052 19.3535 11.8648C19.3347 11.8245 19.3253 11.7804 19.326 11.7359C19.3267 11.6914 19.3375 11.6477 19.3575 11.6079C19.3775 11.5681 19.4063 11.5334 19.4416 11.5063L21.1771 10.1765C21.1977 10.1607 21.2112 10.1374 21.2147 10.1117C21.2182 10.086 21.2114 10.0599 21.1957 10.0392L20.1245 8.6244C20.0001 8.46058 19.9377 8.25804 19.9483 8.05266C19.959 7.84727 20.042 7.65227 20.1828 7.50218C20.331 7.34225 20.534 7.24382 20.7515 7.22645C20.969 7.20907 21.1851 7.274 21.3569 7.40837L21.3636 7.41551L22.4822 9.01562C22.6032 9.11037 22.7006 9.23177 22.7668 9.37033C22.833 9.5089 22.8663 9.66089 22.864 9.81443C22.8617 9.96796 22.8239 10.1189 22.7536 10.2554C22.6833 10.392 22.5823 10.5104 22.4586 10.6015L20.2108 12.3155C20.1599 12.3531 20.0983 12.3733 20.035 12.3733Z" fill="#CCCCCC"/>
<path d="M17.7596 4.21104V3.41197L19.1876 2.78903L20.5492 3.41197V4.21104C20.5492 4.24582 20.5354 4.27917 20.5107 4.30377C20.4861 4.32836 20.4527 4.34218 20.4179 4.34218H17.8909C17.8561 4.34218 17.8227 4.32836 17.7981 4.30377C17.7735 4.27917 17.7596 4.24582 17.7596 4.21104Z" fill="#2F2E41"/>
<path d="M19.1221 2.3007C18.9121 1.62934 19.3531 0.859931 20.0049 0.59419C20.6568 0.328448 21.4367 0.51421 21.9867 0.953255C22.5368 1.3923 22.8781 2.04991 23.0589 2.72968C23.2397 3.40945 23.274 4.11828 23.3074 4.82086C24.1083 4.96783 24.6531 5.91685 24.3757 6.68168C24.0982 7.44652 23.0713 7.82649 22.3621 7.42673C21.6529 7.02697 21.4475 5.95237 21.9594 5.31966C22.2015 5.02028 22.3368 4.64873 22.3438 4.26386C22.3508 3.87898 22.229 3.50279 21.9978 3.19487C21.7666 2.88694 21.4391 2.66488 21.0673 2.56385C20.6955 2.46283 20.3006 2.48861 19.9451 2.63713C19.5504 2.80204 19.0551 2.37357 19.1221 2.3007Z" fill="#2F2E41"/>
<path d="M10.1228 7.09947C9.16392 7.09318 8.217 6.88599 7.34325 6.4913C7.29124 6.46814 7.24709 6.43037 7.21619 6.38259C7.18528 6.3348 7.16895 6.27908 7.16919 6.22219V3.83419C7.16928 3.75596 7.20043 3.68095 7.2558 3.62564C7.31117 3.57032 7.38625 3.5392 7.46455 3.53912H12.7811C12.8594 3.5392 12.9345 3.57032 12.9898 3.62564C13.0452 3.68096 13.0764 3.75596 13.0764 3.83419V6.22219C13.0767 6.27908 13.0604 6.33481 13.0295 6.38259C12.9986 6.43037 12.9544 6.46814 12.9024 6.4913C12.0286 6.886 11.0817 7.09318 10.1228 7.09947Z" fill="#009092"/>
<path d="M10.1221 5.1649C10.0827 5.16494 10.0437 5.1571 10.0073 5.14185L5.79139 3.36488C5.73702 3.34196 5.69077 3.3033 5.6586 3.25389C5.62642 3.20447 5.60981 3.14656 5.61089 3.08762C5.61197 3.02868 5.6307 2.97141 5.66466 2.92321C5.69863 2.875 5.74626 2.83806 5.80143 2.81715L10.0174 1.21931C10.0853 1.19346 10.1604 1.19362 10.2282 1.21976L14.3877 2.8176C14.4426 2.83867 14.4899 2.87562 14.5236 2.92371C14.5573 2.9718 14.5759 3.02885 14.577 3.08756C14.5781 3.14627 14.5616 3.20397 14.5297 3.25327C14.4978 3.30257 14.4519 3.34124 14.3978 3.36433L10.2383 5.14128C10.2015 5.1569 10.162 5.16494 10.1221 5.1649Z" fill="#009092"/>
<path d="M7.66146 6.65378C7.87896 6.65378 8.05527 6.47764 8.05527 6.26035C8.05527 6.04307 7.87896 5.86692 7.66146 5.86692C7.44396 5.86692 7.26764 6.04307 7.26764 6.26035C7.26764 6.47764 7.44396 6.65378 7.66146 6.65378Z" fill="#3F3D56"/>
<path opacity="0.2" d="M14.4122 3.1121L10.2526 4.88904C10.2202 4.9029 10.1853 4.91008 10.15 4.91017C10.1148 4.91025 10.0798 4.90324 10.0473 4.88954L5.83139 3.11262C5.77845 3.09083 5.73428 3.05205 5.70586 3.00238C5.68727 3.03459 5.67575 3.07037 5.67207 3.10737C5.66838 3.14436 5.67262 3.18171 5.68449 3.21694C5.69636 3.25218 5.7156 3.28448 5.74093 3.31172C5.76626 3.33895 5.79709 3.36049 5.83139 3.37491L10.0473 5.15183C10.0798 5.16552 10.1148 5.17254 10.15 5.17245C10.1853 5.17237 10.2202 5.16519 10.2526 5.15133L14.4122 3.37438C14.4463 3.35984 14.477 3.33824 14.5021 3.31099C14.5273 3.28374 14.5463 3.25148 14.5581 3.21632C14.5698 3.18116 14.574 3.14392 14.5703 3.10704C14.5666 3.07016 14.5551 3.03449 14.5365 3.00238C14.5083 3.05164 14.4646 3.09022 14.4122 3.1121Z" fill="black"/>
<path d="M7.69454 6.25881C7.71195 6.25881 7.72865 6.25191 7.74096 6.23961C7.75327 6.22731 7.76018 6.21063 7.76018 6.19324V3.99911L9.92494 3.21125C9.94235 3.21151 9.95914 3.20485 9.97164 3.19274C9.98413 3.18062 9.99129 3.16405 9.99155 3.14666C9.99181 3.12927 9.98515 3.11248 9.97302 3.1C9.9609 3.08752 9.9443 3.08037 9.92689 3.08011L7.76213 3.86797C7.74471 3.86757 7.72739 3.8707 7.71122 3.87718C7.69505 3.88367 7.68037 3.89336 7.66805 3.90568C7.65561 3.91785 7.64574 3.93239 7.63901 3.94844C7.63229 3.96448 7.62885 3.98171 7.62891 3.99911V6.19324C7.62891 6.21063 7.63582 6.22731 7.64813 6.23961C7.66044 6.2519 7.67714 6.25881 7.69454 6.25881Z" fill="#3F3D56"/>
</g>
<defs>
<clipPath id="clip0_115_2954">
<rect width="48.8333" height="35.3621" fill="white" transform="translate(0.0401611 0.471268)"/>
</clipPath>
</defs>
</svg>
