<svg width="33" height="33" viewBox="0 0 33 33" fill="none" xmlns="http://www.w3.org/2000/svg">
<path d="M30.8974 10.6012L19.6362 1.59875C17.8974 0.201249 15.0862 0.201249 13.3637 1.5825L2.10244 10.6012C0.834943 11.6087 0.0224424 13.7375 0.298692 15.33L2.45994 28.265C2.84994 30.5725 5.05994 32.4412 7.39994 32.4412H25.5999C27.9237 32.4412 30.1499 30.5562 30.5399 28.265L32.7012 15.33C32.9612 13.7375 32.1487 11.6087 30.8974 10.6012ZM16.4999 22.1875C15.4225 22.1875 14.3892 21.7595 13.6273 20.9976C12.8655 20.2358 12.4374 19.2024 12.4374 18.125C12.4374 17.0476 12.8655 16.0142 13.6273 15.2524C14.3892 14.4905 15.4225 14.0625 16.4999 14.0625C17.5774 14.0625 18.6107 14.4905 19.3726 15.2524C20.1344 16.0142 20.5624 17.0476 20.5624 18.125C20.5624 19.2024 20.1344 20.2358 19.3726 20.9976C18.6107 21.7595 17.5774 22.1875 16.4999 22.1875Z" fill="#48A9A6"/>
</svg>
