<svg width="42" height="30" viewBox="0 0 42 30" fill="none" xmlns="http://www.w3.org/2000/svg">
<path d="M42 3.65007V23.6497C42 25.2813 40.342 26.7784 38.3062 26.9802L37.6556 27.0475C34.2137 27.4175 29.3656 28.5613 25.4619 29.8733C24.0977 30.3275 22.5866 29.5033 22.5866 28.309V4.91161C22.5866 4.28925 23.0274 3.71735 23.72 3.41458C27.5607 1.74934 33.3742 0.269129 37.3198 0H37.4457C39.9642 0 42 1.6316 42 3.65007ZM18.301 3.41458C14.4603 1.74934 8.64681 0.269129 4.70118 0H4.55427C2.03578 0 0 1.6316 0 3.65007V23.6497C0 25.2813 1.658 26.7784 3.69378 26.9802L4.34439 27.0475C7.78633 27.4175 12.6344 28.5613 16.5381 29.8733C17.9023 30.3275 19.4134 29.5033 19.4134 28.309V4.91161C19.4162 4.60447 19.314 4.30257 19.1179 4.03867C18.9218 3.77476 18.6393 3.55893 18.301 3.41458ZM6.31721 8.51121H11.0394C11.4568 8.51121 11.8572 8.64412 12.1524 8.88071C12.4476 9.1173 12.6134 9.43817 12.6134 9.77276C12.6134 10.1073 12.4476 10.4282 12.1524 10.6648C11.8572 10.9014 11.4568 11.0343 11.0394 11.0343H6.31721C5.89974 11.0343 5.49938 10.9014 5.20418 10.6648C4.90899 10.4282 4.74315 10.1073 4.74315 9.77276C4.74315 9.43817 4.90899 9.1173 5.20418 8.88071C5.49938 8.64412 5.89974 8.51121 6.31721 8.51121ZM12.6134 16.0805H6.31721C5.89974 16.0805 5.49938 15.9476 5.20418 15.711C4.90899 15.4744 4.74315 15.1535 4.74315 14.8189C4.74315 14.4843 4.90899 14.1635 5.20418 13.9269C5.49938 13.6903 5.89974 13.5574 6.31721 13.5574H12.6134C13.0309 13.5574 13.4313 13.6903 13.7265 13.9269C14.0217 14.1635 14.1875 14.4843 14.1875 14.8189C14.1875 15.1535 14.0217 15.4744 13.7265 15.711C13.4313 15.9476 13.0309 16.0805 12.6134 16.0805Z" fill="black" fill-opacity="0.43"/>
</svg>
