<svg width="10" height="28" viewBox="0 0 10 28" fill="none" xmlns="http://www.w3.org/2000/svg">
<path d="M2.02807 17.082L1.68607 0.400024H8.18407L7.80407 17.082H2.02807ZM8.03207 26.278C7.2214 27.0127 6.1954 27.38 4.95407 27.38C3.71274 27.38 2.67407 27.0127 1.83807 26.278C1.0274 25.5434 0.62207 24.6314 0.62207 23.542C0.62207 22.4527 1.0274 21.5407 1.83807 20.806C2.67407 20.0714 3.71274 19.704 4.95407 19.704C6.1954 19.704 7.2214 20.0714 8.03207 20.806C8.86807 21.5407 9.28607 22.4527 9.28607 23.542C9.28607 24.6314 8.86807 25.5434 8.03207 26.278Z" fill="#48A9A6"/>
</svg>
