<svg width="570" height="173" viewBox="0 0 570 173" fill="none" xmlns="http://www.w3.org/2000/svg">
<g clip-path="url(#clip0_284_2701)">
<path d="M86.6508 120.698C67.696 120.698 52.8029 105.946 52.8029 87.1705C52.8029 56.3256 94.7743 54.9845 113.729 54.9845H364.204V0H212.565H142.162H112.375C28.4323 0 0 48.2791 0 87.1705C0 126.062 39.2637 173 86.6508 173H173.302V120.698H86.6508Z" fill="#272828"/>
<path d="M483.349 52.3023C502.304 52.3023 517.197 67.0543 517.197 85.8295C517.197 116.674 475.226 118.016 456.271 118.016H205.796V171.659H356.081H426.485H456.271C540.214 171.659 570 123.38 570 84.4884C570 45.5969 530.737 -1.34106 483.349 -1.34106H396.699V52.3023H483.349V52.3023Z" fill="#272828"/>
</g>
<defs>
<clipPath id="clip0_284_2701">
<rect width="570" height="173" fill="white"/>
</clipPath>
</defs>
</svg>
