<svg width="34" height="35" viewBox="0 0 34 35" fill="none" xmlns="http://www.w3.org/2000/svg">
<path d="M19.042 6.80682H8.15114C7.7087 6.80682 7.28327 6.82384 6.87487 6.87489C2.29729 7.26628 0 9.97198 0 14.958V21.7648C0 28.5716 2.72272 29.9159 8.15114 29.9159H8.83182C9.20619 29.9159 9.69969 30.1712 9.92091 30.4604L11.9629 33.1832C12.8648 34.3914 14.3283 34.3914 15.2302 33.1832L17.2723 30.4604C17.5275 30.1201 17.9359 29.9159 18.3613 29.9159H19.042C24.028 29.9159 26.7337 27.6356 27.1251 23.041C27.1761 22.6326 27.1932 22.2072 27.1932 21.7648V14.958C27.1932 9.52954 24.4704 6.80682 19.042 6.80682ZM7.65765 20.4204C6.7047 20.4204 5.95595 19.6547 5.95595 18.7187C5.95595 17.7828 6.72171 17.017 7.65765 17.017C8.59358 17.017 9.35935 17.7828 9.35935 18.7187C9.35935 19.6547 8.59358 20.4204 7.65765 20.4204ZM13.5966 20.4204C12.6436 20.4204 11.8949 19.6547 11.8949 18.7187C11.8949 17.7828 12.6606 17.017 13.5966 17.017C14.5325 17.017 15.2983 17.7828 15.2983 18.7187C15.2983 19.6547 14.5495 20.4204 13.5966 20.4204ZM19.5525 20.4204C18.5996 20.4204 17.8508 19.6547 17.8508 18.7187C17.8508 17.7828 18.6166 17.017 19.5525 17.017C20.4885 17.017 21.2542 17.7828 21.2542 18.7187C21.2542 19.6547 20.4885 20.4204 19.5525 20.4204Z" fill="#48A9A6"/>
<path d="M33.9998 8.15114V14.9579C33.9998 18.3613 32.9448 20.6756 30.8347 21.9519C30.3242 22.2582 29.7286 21.8498 29.7286 21.2542L29.7456 14.9579C29.7456 8.15114 25.8487 4.25425 19.0419 4.25425L8.67854 4.27127C8.08295 4.27127 7.67454 3.67567 7.98085 3.16516C9.25712 1.05505 11.5714 0 14.9578 0H25.8487C31.2771 0 33.9998 2.72272 33.9998 8.15114Z" fill="#48A9A6"/>
</svg>
