<svg width="49" height="37" viewBox="0 0 49 37" fill="none" xmlns="http://www.w3.org/2000/svg">
<g clip-path="url(#clip0_115_2990)">
<path d="M0.882141 32.9975C0.882141 33.0363 0.913828 33.0675 0.953287 33.0675H47.9604C47.9999 33.0675 48.0316 33.0363 48.0316 32.9975C48.0316 32.9586 47.9999 32.9274 47.9604 32.9274H0.953287C0.913828 32.9274 0.882141 32.9586 0.882141 32.9975Z" fill="#3F3D56"/>
<path d="M26.7124 13.1817L27.1974 10.1973L23.9234 8.88412L23.4384 13.4204L26.7124 13.1817Z" fill="#A0616A"/>
<path d="M25.885 11.1566C27.7289 11.1566 29.2237 9.68506 29.2237 7.86978C29.2237 6.05449 27.7289 4.58292 25.885 4.58292C24.0411 4.58292 22.5463 6.05449 22.5463 7.86978C22.5463 9.68506 24.0411 11.1566 25.885 11.1566Z" fill="#A0616A"/>
<path d="M25.6186 3.45082C25.7152 3.50634 25.8446 3.42234 25.8755 3.31652C25.9065 3.2107 25.8704 3.09835 25.8347 2.99401C25.7746 2.81892 25.7146 2.64383 25.6545 2.46874C25.5268 2.09621 25.3912 1.71066 25.1145 1.42712C24.6968 0.999154 24.0331 0.890282 23.4356 0.969156C22.6684 1.07045 21.9113 1.47946 21.5546 2.15583C21.1978 2.83219 21.3497 3.77596 21.9943 4.19794C21.0756 5.23463 20.7553 6.38998 20.8059 7.76488C20.8565 9.13977 22.3784 10.4051 23.3709 11.3737C23.5926 11.2414 23.7941 10.6215 23.6722 10.3963C23.5503 10.1712 23.7249 9.91027 23.574 9.70285C23.423 9.49542 23.2967 9.8257 23.4493 9.61946C23.5456 9.48931 23.1698 9.18991 23.3129 9.11201C24.0053 8.73525 24.2355 7.88568 24.6704 7.2351C25.1949 6.45038 26.0925 5.91895 27.0425 5.83079C27.5658 5.78222 28.1186 5.87019 28.5475 6.16928C28.9764 6.46836 29.2541 7.00283 29.1547 7.51094C29.4123 7.25345 29.5405 6.87609 29.4921 6.51783C29.4438 6.15957 29.2199 5.82828 28.9029 5.64596C29.0956 5.0185 28.9305 4.29674 28.4832 3.81119C28.0358 3.32564 26.2211 3.40834 25.568 3.53612" fill="#2F2E41"/>
<path d="M25.5172 5.84984C24.6522 5.94176 24.0276 6.67941 23.5002 7.36062C23.1963 7.75325 22.8778 8.18685 22.8855 8.68047C22.8932 9.17952 23.2321 9.60758 23.3941 10.0805C23.6589 10.8536 23.4008 11.7734 22.7706 12.3031C23.3933 12.4194 24.0666 11.9597 24.1741 11.3447C24.2992 10.6288 23.748 9.93779 23.8133 9.21418C23.8708 8.57667 24.3811 8.08604 24.8149 7.60938C25.2488 7.13271 25.6562 6.5002 25.4566 5.89109" fill="#2F2E41"/>
<path d="M25.6827 35.9543C25.6827 35.9543 18.4489 36.6606 17.9108 35.8366C17.3728 35.0127 25.2517 34.1887 25.2517 34.1887L25.6827 35.9543Z" fill="#A0616A"/>
<path d="M21.0704 22.7511L20.9209 23.5322C21.3279 24.1236 21.3669 24.7489 21.1301 25.3995L29.3803 25.4584C29.2916 24.5783 29.1945 23.6358 29.5342 22.7709L21.0704 22.7511Z" fill="#A0616A"/>
<path d="M34.5837 28.5582L31.5916 26.2018C31.194 25.8886 30.9366 25.4231 30.8854 24.9244L30.4243 20.4353L33.1711 19.5339L33.8333 23.9788L35.4839 27.672L34.5837 28.5582Z" fill="#A0616A"/>
<path d="M23.1329 12.8929L27.1384 12.7163L31.383 14.7067L29.6493 22.8394L20.8611 23.4868L19.6655 14.482L23.1329 12.8929Z" fill="#009092"/>
<path d="M29.5342 24.7131C30.136 25.4941 30.3888 27.3745 30.6447 29.2449C30.6447 29.2449 19.525 29.1861 19.4652 29.1861C19.4054 29.1861 21.1645 25.2428 21.1645 25.2428L29.5342 24.7131Z" fill="#2F2E41"/>
<path d="M29.8974 28.746L30.6447 29.2449C30.6447 29.2449 41.2263 28.5387 40.3296 31.8345C39.4328 35.1304 36.623 35.6601 36.623 35.6601L25.2642 36.3075L25.1446 34.483C25.1446 34.483 14.2042 36.896 13.1879 31.9522C12.1716 27.0084 19.4652 29.1861 19.4652 29.1861L29.8974 28.746Z" fill="#2F2E41"/>
<path d="M25.4324 32.6585C25.4324 32.6585 25.6826 31.3637 27.4761 31.8934C29.2696 32.4231 30.286 33.1293 30.286 33.1293L25.9815 34.1887L25.4324 32.6585Z" fill="#A0616A"/>
<path d="M29.9183 14.5703C29.9183 14.5703 31.951 13.864 32.7282 16.1593C33.5053 18.4547 33.326 20.338 33.326 20.338L30.3368 21.2797L29.9183 14.5703Z" fill="#009092"/>
<path d="M15.9801 28.9165L15.3279 27.7853L16.7369 24.3324L17.3992 19.887L20.146 20.7884L19.6793 25.3318C19.6316 25.796 19.392 26.2293 19.022 26.5208L15.9801 28.9165L15.9801 28.9165Z" fill="#A0616A"/>
<path d="M20.6519 14.5703C20.6519 14.5703 18.6193 13.864 17.8421 16.1593C17.0649 18.4547 17.2443 20.338 17.2443 20.338L20.2334 21.2797L20.6519 14.5703Z" fill="#009092"/>
<path d="M35.4483 29.0779C36.2407 29.0779 36.8831 28.1425 36.8831 26.9886C36.8831 25.8347 36.2407 24.8993 35.4483 24.8993C34.6559 24.8993 34.0135 25.8347 34.0135 26.9886C34.0135 28.1425 34.6559 29.0779 35.4483 29.0779Z" fill="#A0616A"/>
<path d="M15.3013 29.4311C16.0937 29.4311 16.7361 28.4956 16.7361 27.3417C16.7361 26.1878 16.0937 25.2524 15.3013 25.2524C14.5088 25.2524 13.8665 26.1878 13.8665 27.3417C13.8665 28.4956 14.5088 29.4311 15.3013 29.4311Z" fill="#A0616A"/>
<path d="M20.7804 30.834L25.9816 32.3054L26.9979 34.071L25.0542 34.483" fill="#2F2E41"/>
</g>
<defs>
<clipPath id="clip0_115_2990">
<rect width="47.1494" height="35.3621" fill="white" transform="translate(0.882141 0.945404)"/>
</clipPath>
</defs>
</svg>
