<svg width="54" height="39" viewBox="0 0 54 39" fill="none" xmlns="http://www.w3.org/2000/svg">
<g clip-path="url(#clip0_115_2832)">
<path d="M53.0948 21.4894C53.0948 21.5262 53.0651 21.5561 53.0284 21.5561H0.893677V21.4228H53.0284C53.0651 21.4228 53.0948 21.4526 53.0948 21.4894V21.4894Z" fill="#E6E6E6"/>
<path d="M18.0358 5.30477C19.124 5.30477 20.0061 4.41989 20.0061 3.32834C20.0061 2.23678 19.124 1.35191 18.0358 1.35191C16.9477 1.35191 16.0656 2.23678 16.0656 3.32834C16.0656 4.41989 16.9477 5.30477 18.0358 5.30477Z" fill="#FFB6B6"/>
<path d="M19.0799 5.7218L16.4865 6.46509L16.1161 7.30129L15.2825 11.2965V17.6144C15.2825 17.6144 14.2637 19.8443 14.8194 21.7954C15.4134 23.881 17.5054 21.4194 19.0799 21.7003C20.6544 21.9812 23.1551 22.26 23.1551 22.26L21.6732 15.4775L21.3027 7.20838L19.0799 5.7218H19.0799Z" fill="#E6E6E6"/>
<path d="M18.5905 3.97557L18.1899 3.77466C18.1899 3.77466 18.0898 2.87054 17.8895 2.66963C17.6892 2.46872 17.6892 2.36826 17.6892 2.36826L17.9896 1.96643C17.9896 1.96643 16.4875 2.77009 16.1871 2.2678C15.8867 1.76552 16.2872 1.5646 16.2872 1.5646L15.7865 1.16278C15.7865 1.16278 16.3874 1.5646 16.4875 1.26323C16.5877 0.961862 17.1885 0.757389 17.1885 0.757389C17.1885 0.757389 18.5006 1.0552 18.3953 0.757389C18.2901 0.459577 18.6906 0.760948 18.7908 0.861405C18.8909 0.961862 19.7922 1.96643 19.8923 1.86597C19.9925 1.76552 20.4932 2.06689 20.393 2.16735C20.2929 2.2678 20.2929 2.36826 20.393 2.46872C20.4932 2.56917 21.094 3.6742 20.5933 4.07603C20.0926 4.47786 19.3916 4.98014 19.4918 5.38197C19.5919 5.7838 19.4918 4.07603 18.5905 3.97557L18.5905 3.97557Z" fill="#2F2E41"/>
<path d="M8.87823 8.9517C8.37255 8.51441 8.18757 7.8982 8.46504 7.57541C8.74252 7.25262 9.37728 7.3455 9.88309 7.78302C10.0875 7.95501 10.2479 8.17362 10.3509 8.42054L12.4702 10.3005L11.5695 11.2794L9.57591 9.32212C9.3172 9.25632 9.07796 9.1293 8.87823 8.9517L8.87823 8.9517Z" fill="#FFB6B6"/>
<path d="M16.1383 7.33326L17.5343 7.20595L18.7585 13.0631C18.9918 14.1792 18.2625 15.2688 17.1445 15.4746L16.1383 15.6599L9.72534 9.99572L10.6623 8.4289L15.3915 11.4049L16.1383 7.33326V7.33326Z" fill="#E6E6E6"/>
<path d="M13.0217 33.3807C13.0217 33.3807 11.9145 35.4435 11.9936 35.3641C12.0727 35.2848 13.4172 35.7608 13.4172 35.7608L14.208 33.6981L13.0217 33.3807Z" fill="#FFB6B6"/>
<path d="M11.3875 18.9417C11.3875 18.9417 10.8207 21.2144 10.8779 21.118C10.935 21.0216 12.355 21.1508 12.355 21.1508L12.6152 18.9562L11.3875 18.9417H11.3875Z" fill="#FFB6B6"/>
<path d="M21.2468 18.5595C18.7446 18.9121 16.4846 18.6047 14.643 17.1562C14.643 17.1562 13.2985 21.6785 15.7502 22.1545C18.202 22.6305 20.9305 21.8124 21.2468 21.019C21.5632 20.2256 21.2468 18.5595 21.2468 18.5595Z" fill="#2F2E41"/>
<path d="M16.5807 19.9876L13.8521 26.4387L12.5867 33.8964L14.2476 34.2931L17.2184 27.4304L21.2469 20.8603L16.5807 19.9876Z" fill="#2F2E41"/>
<path d="M16.2248 18.148C16.2248 18.148 15.5921 13.2291 14.4058 12.9117C13.8274 12.757 13.2867 12.772 12.8843 12.828C12.4788 12.8844 12.1555 13.1952 12.0846 13.5997L11.0065 19.7496H12.531L13.0217 18.0835L14.3267 20.3694L16.2248 18.148V18.148Z" fill="#2F2E41"/>
<path d="M12.3495 20.5281L10.8421 20.3694L10.6095 21.2421C10.6095 21.2421 8.15781 23.4636 9.42322 23.6222C10.6886 23.7809 11.8749 22.9082 11.8749 22.9082L13.6157 21.9065C13.6157 21.9065 12.9426 20.1066 12.4681 20.1066C11.9936 20.1066 12.3495 20.5281 12.3495 20.5281V20.5281Z" fill="#2F2E41"/>
<path d="M13.1404 35.4038L11.633 35.2451L11.4004 36.1178C11.4004 36.1178 8.94871 38.3393 10.2141 38.498C11.4795 38.6566 12.6658 37.7839 12.6658 37.7839L14.4065 36.7822C14.4065 36.7822 14.2871 34.903 13.8126 34.903C13.3381 34.903 13.1404 35.4038 13.1404 35.4038Z" fill="#2F2E41"/>
<path d="M20.7725 23.3934C20.5907 24.0187 20.1218 24.4315 19.7251 24.3154C19.3285 24.1993 19.1543 23.5984 19.3362 22.9729C19.4055 22.722 19.5336 22.4914 19.7099 22.3004L20.5133 19.6608L21.74 20.0654L20.8178 22.6247C20.8641 22.8809 20.8486 23.1445 20.7725 23.3934V23.3934Z" fill="#FFB6B6"/>
<path d="M21.6216 7.21987L20.9819 7.03889V7.0389C20.3788 8.24279 20.1194 9.59062 20.2325 10.9332L20.5482 14.6796L19.5065 21.2644L21.5483 21.7943L23.1572 13.5306L21.6216 7.21987V7.21987Z" fill="#E6E6E6"/>
<path d="M9.16843 17.5151C9.14042 17.4291 8.92811 17.467 8.90772 17.3901C8.88741 17.3134 9.09114 17.2492 9.24739 17.0332C9.27557 16.9942 9.45313 16.7488 9.38503 16.6456C9.25594 16.4499 8.35782 16.9373 8.14224 16.6638C8.09493 16.6038 8.07546 16.5007 7.93452 16.309C7.87845 16.2327 7.84247 16.1959 7.79949 16.197C7.73851 16.1985 7.71668 16.2751 7.62083 16.4137C7.47708 16.6216 7.4252 16.5955 7.33051 16.7659C7.26021 16.8923 7.25188 16.9731 7.20118 16.9779C7.12945 16.9846 7.0998 16.8272 7.01215 16.8211C6.9227 16.8148 6.83319 16.9704 6.78882 17.092C6.70555 17.3201 6.75711 17.4944 6.76855 17.6682C6.78097 17.857 6.7518 18.1334 6.54728 18.4882L4.61819 21.5714C5.03248 20.9429 6.20849 19.2289 6.6823 18.6002C6.81908 18.4187 6.96607 18.2365 7.19231 18.2022C7.41012 18.1692 7.67515 18.2773 8.04507 18.271C8.08827 18.2703 8.2085 18.2667 8.23775 18.2028C8.26193 18.1499 8.20189 18.104 8.22373 18.0543C8.25302 17.9876 8.38482 18.0162 8.56442 17.972C8.69107 17.9408 8.77711 17.8892 8.85111 17.8449C8.87341 17.8315 9.20573 17.6296 9.16844 17.5151H9.16843L9.16843 17.5151Z" fill="#F2F2F2"/>
<path d="M4.11582 18.235C4.06567 18.2239 4.02293 18.3394 3.97942 18.3272C3.93607 18.3151 3.96341 18.1963 3.90283 18.057C3.8919 18.0319 3.82306 17.8737 3.7529 17.8774C3.61992 17.8845 3.59922 18.4673 3.40322 18.4946C3.3602 18.5005 3.30417 18.4804 3.16969 18.4945C3.11619 18.5001 3.0878 18.5072 3.07593 18.5286C3.05909 18.5591 3.09024 18.5919 3.13041 18.6791C3.19066 18.8099 3.16292 18.8279 3.21895 18.9237C3.26054 18.9948 3.29767 19.0222 3.28537 19.0485C3.26797 19.0858 3.18239 19.055 3.1541 19.0964C3.12525 19.1386 3.17554 19.2276 3.22221 19.2845C3.30979 19.3913 3.40997 19.4162 3.49828 19.4607C3.59425 19.5091 3.72107 19.6032 3.83564 19.8063L4.78753 21.6456C4.59955 21.2603 4.10028 20.1868 3.9294 19.7721C3.88007 19.6524 3.83332 19.5274 3.88182 19.4062C3.92852 19.2894 4.05788 19.1901 4.16153 19.0061C4.17364 18.9847 4.20658 18.9244 4.18374 18.8916C4.16486 18.8644 4.12505 18.8807 4.10705 18.8556C4.0829 18.822 4.13491 18.7654 4.16508 18.6642C4.18635 18.5928 4.18595 18.5356 4.18561 18.4863C4.1855 18.4715 4.18259 18.2496 4.11583 18.2349V18.235L4.11582 18.235Z" fill="#F2F2F2"/>
<path d="M5.06549 18.6838L5.09541 18.4066L5.11376 18.3892C5.19867 18.3087 5.25178 18.2235 5.2717 18.1357C5.27487 18.1217 5.27733 18.1076 5.27984 18.0932C5.28978 18.0363 5.30211 17.9654 5.35672 17.8919C5.38728 17.8509 5.46812 17.7582 5.5515 17.7906C5.574 17.7991 5.58919 17.8137 5.59975 17.8292C5.60239 17.8265 5.60511 17.8238 5.60801 17.8209C5.64403 17.7858 5.66922 17.7729 5.69349 17.7606C5.71214 17.751 5.7314 17.7412 5.76399 17.7151C5.77828 17.7036 5.78973 17.6933 5.79938 17.6846C5.82863 17.6584 5.86605 17.6277 5.91731 17.6399C5.97165 17.6548 5.99028 17.7068 6.00264 17.7412C6.02471 17.8026 6.03151 17.8448 6.03601 17.8728C6.03763 17.8831 6.03951 17.8946 6.04093 17.8983C6.05282 17.9284 6.20211 17.9362 6.25829 17.9394C6.38456 17.9463 6.49382 17.9522 6.5201 18.039C6.53895 18.101 6.49966 18.1687 6.39994 18.2455C6.36888 18.2693 6.33782 18.2858 6.31077 18.2981C6.32741 18.3139 6.34067 18.3354 6.34148 18.3646C6.3433 18.4338 6.27255 18.4869 6.13119 18.5227C6.09606 18.5317 6.04881 18.5436 5.98698 18.5406C5.95787 18.5392 5.93236 18.5347 5.91061 18.5305C5.90737 18.543 5.90142 18.5559 5.8907 18.5681C5.85924 18.6043 5.80843 18.6135 5.73946 18.5931C5.66332 18.5718 5.60316 18.5429 5.55008 18.5174C5.50371 18.4953 5.46373 18.4763 5.43018 18.4711C5.36778 18.4624 5.3096 18.501 5.23997 18.5525L5.06549 18.6838H5.06549L5.06549 18.6838Z" fill="#F2F2F2"/>
<path d="M5.56344 17.1054L5.28864 17.1466L5.2672 17.1332C5.16804 17.0713 5.07234 17.0413 4.98266 17.0443C4.9684 17.0447 4.95416 17.0459 4.93967 17.0471C4.8822 17.052 4.81078 17.058 4.72599 17.0236C4.67871 17.0044 4.56888 16.9494 4.57893 16.8603C4.58138 16.8363 4.59164 16.8179 4.60393 16.8037C4.60065 16.8018 4.59738 16.7999 4.59383 16.7978C4.55084 16.7717 4.53205 16.7506 4.51395 16.7302C4.50003 16.7145 4.48569 16.6983 4.45221 16.6733C4.43753 16.6623 4.42468 16.6538 4.41387 16.6467C4.38118 16.6249 4.3421 16.5964 4.34082 16.5436C4.3414 16.4871 4.38682 16.4558 4.41687 16.4351C4.47048 16.3981 4.50946 16.3808 4.53533 16.3693C4.54478 16.3651 4.55541 16.3604 4.55866 16.3581C4.58464 16.3389 4.55427 16.1921 4.54316 16.1367C4.51776 16.0125 4.49577 15.9049 4.57274 15.8574C4.62779 15.8234 4.70302 15.8444 4.80234 15.9217C4.83324 15.9457 4.85702 15.9717 4.87575 15.9948C4.88675 15.9747 4.90408 15.9564 4.93207 15.9482C4.99834 15.9288 5.06748 15.984 5.13786 16.1121C5.15544 16.1439 5.17891 16.1867 5.19169 16.2475C5.19768 16.2761 5.19984 16.302 5.20132 16.3242C5.21413 16.3242 5.2281 16.3267 5.24264 16.3339C5.28546 16.3553 5.30721 16.4023 5.30506 16.4744C5.30385 16.5537 5.2912 16.6194 5.28013 16.6773C5.27053 16.728 5.26239 16.7716 5.26591 16.8054C5.2733 16.8682 5.32532 16.9148 5.39258 16.9694L5.56345 17.1054H5.56344L5.56344 17.1054Z" fill="#F2F2F2"/>
<path d="M5.60046 16.2775L5.63038 16.0004L5.64874 15.983C5.73364 15.9025 5.78675 15.8172 5.80668 15.7295C5.80985 15.7155 5.8123 15.7014 5.81481 15.687C5.82475 15.63 5.83709 15.5592 5.89169 15.4856C5.92225 15.4447 6.0031 15.352 6.08647 15.3844C6.10898 15.3928 6.12417 15.4075 6.13472 15.423C6.13737 15.4203 6.14008 15.4176 6.14298 15.4147C6.179 15.3796 6.20419 15.3667 6.22846 15.3543C6.24711 15.3448 6.26637 15.335 6.29896 15.3089C6.31325 15.2974 6.3247 15.2871 6.33435 15.2784C6.36361 15.2522 6.40103 15.2215 6.45229 15.2337C6.50662 15.2486 6.52525 15.3006 6.53761 15.335C6.55968 15.3964 6.56648 15.4386 6.57098 15.4666C6.5726 15.4768 6.57448 15.4884 6.5759 15.4921C6.58779 15.5222 6.73709 15.5299 6.79326 15.5332C6.91953 15.5401 7.02879 15.546 7.05507 15.6327C7.07393 15.6948 7.03463 15.7625 6.93491 15.8392C6.90385 15.8631 6.87279 15.8796 6.84574 15.8919C6.86238 15.9077 6.87564 15.9292 6.87645 15.9584C6.87828 16.0276 6.80752 16.0807 6.66616 16.1165C6.63104 16.1255 6.58379 16.1374 6.52196 16.1344C6.49284 16.133 6.46733 16.1285 6.44558 16.1243C6.44234 16.1367 6.4364 16.1497 6.42568 16.1619C6.39422 16.198 6.3434 16.2072 6.27444 16.1869C6.1983 16.1656 6.13813 16.1366 6.08505 16.1112C6.03868 16.089 5.9987 16.0701 5.96515 16.0649C5.90276 16.0562 5.84457 16.0948 5.77494 16.1462L5.60047 16.2775H5.60047L5.60046 16.2775Z" fill="#F2F2F2"/>
<path d="M4.70943 21.5872L4.66084 21.539L4.66172 21.4706L4.66084 21.539L4.59331 21.5319C4.59363 21.5255 4.59319 21.5106 4.59269 21.4873C4.5901 21.3598 4.58203 20.9719 4.63589 20.3757C4.67349 19.9596 4.73633 19.5372 4.82266 19.12C4.90914 18.7022 4.99889 18.3913 5.07097 18.1415C5.12537 17.953 5.18028 17.7743 5.23388 17.6002C5.37692 17.135 5.51198 16.6956 5.59562 16.1944C5.61435 16.0825 5.65322 15.8496 5.57364 15.5747C5.52746 15.4152 5.4484 15.2652 5.33856 15.1288L5.44487 15.0427C5.56607 15.1934 5.6535 15.3596 5.70478 15.5366C5.79302 15.8414 5.75067 16.0952 5.73032 16.2171C5.64519 16.7272 5.50878 17.1708 5.36433 17.6405C5.311 17.8139 5.25627 17.9919 5.20211 18.1796C5.13068 18.4271 5.04174 18.7353 4.95639 19.1478C4.87103 19.5599 4.809 19.9772 4.77181 20.3881C4.71867 20.9767 4.72665 21.3589 4.72926 21.4844C4.73061 21.5515 4.7309 21.5655 4.70943 21.5872V21.5872L4.70943 21.5872Z" fill="#F2F2F2"/>
<path d="M5.04693 15.2865C5.04146 15.2853 5.03596 15.2839 5.03045 15.2823C4.91834 15.2507 4.8284 15.1591 4.76308 15.0099C4.7325 14.9397 4.72529 14.8659 4.71089 14.7187C4.70864 14.6959 4.69866 14.5811 4.71092 14.4288C4.7189 14.3293 4.72957 14.2894 4.75655 14.258C4.78653 14.223 4.8269 14.203 4.86958 14.193C4.87073 14.1798 4.87502 14.1669 4.88355 14.1547C4.91865 14.1041 4.97741 14.1249 5.00929 14.1357C5.02535 14.1415 5.04537 14.1489 5.06788 14.1527C5.10326 14.1588 5.12439 14.1526 5.15637 14.1433C5.18698 14.1344 5.22503 14.1233 5.27762 14.1242C5.3814 14.1256 5.45822 14.1724 5.48355 14.1878C5.61696 14.2682 5.66303 14.3965 5.71633 14.5451C5.72693 14.5749 5.76208 14.6825 5.77026 14.8211C5.77617 14.9211 5.76311 14.962 5.74814 14.9913C5.71755 15.0515 5.6707 15.0793 5.55445 15.138C5.43299 15.1995 5.37205 15.2303 5.32209 15.2461C5.20582 15.2827 5.13281 15.3057 5.04693 15.2865V15.2865V15.2865Z" fill="#F2F2F2"/>
<path d="M36.2249 3.68724C36.2249 3.68724 36.9791 4.13096 36.7317 4.56978C36.4844 5.00859 36.1395 5.6063 36.3735 5.79455C36.6074 5.98279 36.9937 6.81276 36.9937 6.81276C36.9937 6.81276 38.6423 6.58177 38.4875 7.86644C38.3327 9.15111 37.5582 9.32625 38.2221 9.89141C38.8859 10.4566 37.5321 11.1325 37.5321 11.1325C37.5321 11.1325 36.5976 10.8403 36.3843 9.94192C36.1711 9.0435 36.5744 10.6289 36.4392 10.7426C36.3039 10.8562 35.7787 11.6055 35.4071 10.6093C35.0355 9.61309 35.4035 9.22684 34.9124 8.63889C34.4214 8.05093 34.0875 7.09995 34.1022 6.93372C34.1168 6.76748 33.5405 5.25055 34.4276 4.65896C35.3146 4.06737 36.2249 3.68724 36.2249 3.68724V3.68724Z" fill="#2F2E41"/>
<path d="M43.6541 17.626C44.092 17.9895 44.634 18.0576 44.8646 17.778C45.0952 17.4984 44.9271 16.9771 44.489 16.6134C44.3159 16.4658 44.1102 16.3618 43.8889 16.3103L42.0141 14.7934L41.3232 15.6911L43.2448 17.0912C43.3367 17.2997 43.477 17.4831 43.6541 17.626V17.626Z" fill="#FFB6B6"/>
<path d="M38.0351 9.35305C38.0351 9.35305 36.5638 8.366 36.082 8.85C35.6002 9.334 35.7152 10.5429 35.7152 10.5429L39.5736 15.0537L42.6331 17.0046L43.4535 15.7159L40.8813 13.4135L38.0351 9.35305V9.35305Z" fill="#3F3D56"/>
<path d="M35.8784 7.21493L36.4123 9.1184H33.4823L34.4471 6.77303L35.8784 7.21493Z" fill="#FFB6B6"/>
<path opacity="0.1" d="M35.8784 7.21493L36.4123 9.1184H33.4823L34.4471 6.77303L35.8784 7.21493Z" fill="black"/>
<path d="M29.4887 21.2688C29.4509 21.8378 29.7129 22.3186 30.0738 22.3426C30.4348 22.3667 30.7579 21.9251 30.7957 21.3559C30.8139 21.1287 30.7776 20.9005 30.6898 20.6903L30.8198 18.2776L29.6898 18.2406L29.6817 20.623C29.5669 20.8197 29.5007 21.0412 29.4887 21.2688V21.2688Z" fill="#FFB6B6"/>
<path d="M32.8912 11.858C32.8912 11.858 32.8287 10.0835 32.1555 9.97461C31.4824 9.86568 30.5722 10.6664 30.5722 10.6664L29.1818 16.4442L29.3939 20.0746L30.9157 19.9884L31.2729 16.5488L32.8912 11.858V11.858Z" fill="#3F3D56"/>
<path d="M39.4176 33.0634C39.4176 33.0634 40.5248 35.1261 40.4457 35.0468C40.3666 34.9674 39.0221 35.4435 39.0221 35.4435L38.2313 33.3807L39.4176 33.0634Z" fill="#FFB6B6"/>
<path d="M41.0518 18.6243C41.0518 18.6243 41.6186 20.8971 41.5614 20.8007C41.5042 20.7042 40.0843 20.8335 40.0843 20.8335L39.8241 18.6389L41.0518 18.6243V18.6243Z" fill="#FFB6B6"/>
<path d="M36.6495 8.4837H33.8852L30.8761 10.5465L30.0061 17.7662L30.4807 19.1942L31.3506 20.8603C31.3506 20.8603 30.4807 17.2108 32.616 18.6389C34.7514 20.0669 34.9096 20.3049 34.9096 20.3049L37.7567 18.8769L38.8244 12.9662L38.0336 9.71342L36.6495 8.4837Z" fill="#3F3D56"/>
<path d="M31.1924 18.2422C33.6947 18.5948 35.9547 18.2874 37.7963 16.8389C37.7963 16.8389 39.1408 21.3611 36.6891 21.8371C34.2373 22.3132 31.5088 21.495 31.1924 20.7016C30.8761 19.9083 31.1924 18.2422 31.1924 18.2422Z" fill="#2F2E41"/>
<path d="M35.8586 19.6702L38.5872 26.1213L39.8526 33.579L38.1917 33.9757L35.2209 27.1131L31.1924 20.543L35.8586 19.6702Z" fill="#2F2E41"/>
<path d="M36.2145 17.8306C36.2145 17.8306 36.8472 12.9117 38.0336 12.5944C38.6119 12.4396 39.1526 12.4546 39.555 12.5106C39.9605 12.5671 40.2838 12.8779 40.3547 13.2824L41.4328 19.4322H39.9083L39.4176 17.7661L38.1126 20.0521L36.2145 17.8306V17.8306Z" fill="#2F2E41"/>
<path d="M40.0898 20.2107L41.5972 20.0521L41.8298 20.9248C41.8298 20.9248 44.2815 23.1462 43.0161 23.3049C41.7507 23.4636 40.5643 22.5908 40.5643 22.5908L38.8236 21.5891C38.8236 21.5891 39.4967 19.7892 39.9712 19.7892C40.4457 19.7892 40.0898 20.2107 40.0898 20.2107V20.2107Z" fill="#2F2E41"/>
<path d="M39.299 35.0865L40.8063 34.9278L41.0389 35.8005C41.0389 35.8005 43.4906 38.0219 42.2252 38.1806C40.9598 38.3393 39.7735 37.4666 39.7735 37.4666L38.0328 36.4649C38.0328 36.4649 38.1522 34.5856 38.6267 34.5856C39.1012 34.5856 39.299 35.0865 39.299 35.0865Z" fill="#2F2E41"/>
<path d="M35.1823 7.62856C36.1568 7.62856 36.9468 6.83607 36.9468 5.85849C36.9468 4.88092 36.1568 4.08843 35.1823 4.08843C34.2078 4.08843 33.4178 4.88092 33.4178 5.85849C33.4178 6.83607 34.2078 7.62856 35.1823 7.62856Z" fill="#FFB6B6"/>
<path d="M35.8587 3.88193C35.8587 3.88193 36.1528 4.70796 35.6822 4.88497C35.2117 5.06197 34.5647 5.29798 34.6235 5.59299C34.6824 5.888 34.4471 6.77303 34.4471 6.77303C34.4471 6.77303 35.8587 7.65807 34.9176 8.5431C33.9766 9.42813 33.2708 9.06343 33.4178 9.9243C33.5648 10.7852 32.0944 10.4312 32.0944 10.4312C32.0944 10.4312 31.5651 9.60513 31.9768 8.77911C32.3885 7.95308 31.6827 9.42813 31.5063 9.42813C31.3298 9.42813 30.4476 9.66414 30.8005 8.6611C31.1534 7.65807 31.6827 7.59906 31.6827 6.83204C31.6827 6.06501 32.0356 5.12097 32.1532 5.00297C32.2709 4.88497 32.8002 3.35091 33.8589 3.46892C34.9176 3.58692 35.8587 3.88193 35.8587 3.88193V3.88193Z" fill="#2F2E41"/>
<path d="M20.4365 33.0634C20.4365 33.0634 19.3293 35.1261 19.4083 35.0468C19.4874 34.9674 20.8319 35.4435 20.8319 35.4435L21.6228 33.3807L20.4365 33.0634V33.0634Z" fill="#A0616A"/>
<path d="M28.6616 18.2422C26.1594 18.5948 23.8994 18.2874 22.0578 16.8389C22.0578 16.8389 20.7133 21.3611 23.165 21.8371C25.6168 22.3132 28.3453 21.495 28.6616 20.7016C28.978 19.9083 28.6616 18.2422 28.6616 18.2422Z" fill="#2F2E41"/>
<path d="M23.9955 19.6702L21.2669 26.1213L20.0015 33.579L21.6624 33.9757L24.6331 27.1131L28.6616 20.543L23.9955 19.6702Z" fill="#2F2E41"/>
<path d="M20.5551 35.0865L19.0478 34.9278L18.8152 35.8005C18.8152 35.8005 16.3635 38.0219 17.6289 38.1806C18.8943 38.3393 20.0806 37.4666 20.0806 37.4666L21.8213 36.4649C21.8213 36.4649 21.7019 34.5856 21.2274 34.5856C20.7528 34.5856 20.5551 35.0865 20.5551 35.0865V35.0865Z" fill="#2F2E41"/>
<path d="M22.9366 31.9781C22.9366 31.9781 22.5177 34.2829 22.5686 34.183C22.6194 34.083 24.0447 34.1197 24.0447 34.1197L24.1626 31.9128L22.9366 31.9781Z" fill="#A0616A"/>
<path d="M22.2031 18.1368L21.5916 25.1177L22.6814 32.6032L24.3833 32.4666L25.0986 25.0193L26.9101 17.5229L22.2031 18.1368Z" fill="#2F2E41"/>
<path d="M23.6716 33.8658L22.189 34.1813L22.2361 35.0835C22.2361 35.0835 20.5872 37.9553 21.8397 37.7146C23.0921 37.4739 23.9522 36.2767 23.9522 36.2767L25.2999 34.7851C25.2999 34.7851 24.6084 33.0345 24.1571 33.1814C23.7057 33.3282 23.6716 33.8658 23.6716 33.8658V33.8658Z" fill="#2F2E41"/>
<path d="M23.6292 3.68724C23.6292 3.68724 22.875 4.13096 23.1224 4.56978C23.3697 5.00859 23.7146 5.6063 23.4806 5.79455C23.2467 5.98279 22.8604 6.81276 22.8604 6.81276C22.8604 6.81276 21.2118 6.58177 21.3666 7.86644C21.5214 9.15111 22.2958 9.32625 21.632 9.89141C20.9682 10.4566 22.3219 11.1325 22.3219 11.1325C22.3219 11.1325 23.2565 10.8403 23.4697 9.94192C23.683 9.0435 23.2797 10.6289 23.4149 10.7426C23.5502 10.8562 24.0754 11.6055 24.447 10.6093C24.8186 9.61309 24.4506 9.22684 24.9416 8.63889C25.4327 8.05093 25.7665 7.09995 25.7519 6.93372C25.7373 6.76748 26.3136 5.25055 25.4265 4.65896C24.5395 4.06737 23.6292 3.68724 23.6292 3.68724V3.68724Z" fill="#2F2E41"/>
<path d="M23.9757 7.21493L23.4418 9.1184H26.3718L25.407 6.77303L23.9757 7.21493Z" fill="#A0616A"/>
<path opacity="0.1" d="M23.9757 7.21493L23.4418 9.1184H26.3718L25.407 6.77303L23.9757 7.21493Z" fill="black"/>
<path d="M30.3654 21.2688C30.4032 21.8378 30.1412 22.3186 29.7803 22.3426C29.4193 22.3667 29.0961 21.9251 29.0584 21.3559C29.0402 21.1287 29.0765 20.9005 29.1642 20.6903L29.0343 18.2776L30.1643 18.2406L30.1724 20.623C30.2872 20.8197 30.3534 21.0412 30.3654 21.2688H30.3654Z" fill="#A0616A"/>
<path d="M26.9629 11.858C26.9629 11.858 27.0254 10.0835 27.6986 9.97461C28.3717 9.86568 29.2819 10.6664 29.2819 10.6664L30.6723 16.4442L30.4601 20.0746L28.9384 19.9884L28.5812 16.5488L26.9629 11.858V11.858Z" fill="#009092"/>
<path d="M23.2046 8.4837H25.9689L28.978 10.5465L29.848 17.7662L29.3734 19.1942L28.5035 20.8603C28.5035 20.8603 29.3734 17.2108 27.2381 18.6389C27.2167 18.6531 27.1955 18.6673 27.1746 18.6813C25.8 19.6023 23.9862 19.5078 22.7138 18.4493L21.7019 17.6075L22.2555 14.8307L21.8205 9.71342L23.2046 8.4837V8.4837Z" fill="#009092"/>
<path d="M16.2875 17.5226C15.8441 17.8794 15.3012 17.9392 15.0748 17.6561C14.8485 17.373 15.0245 16.8543 15.468 16.4974C15.6433 16.3524 15.8506 16.2516 16.0726 16.2034L17.9702 14.7153L18.6474 15.6234L16.7048 16.9941C16.6098 17.2012 16.4667 17.3824 16.2875 17.5226V17.5226Z" fill="#A0616A"/>
<path d="M22.0311 9.33627C22.0311 9.33627 23.5172 8.37176 23.9916 8.86305C24.4661 9.35433 24.3327 10.5613 24.3327 10.5613L20.4065 15.0128L17.3178 16.9168L16.517 15.6158L19.1237 13.3528L22.0311 9.33627V9.33627Z" fill="#009092"/>
<path d="M24.6718 7.62856C25.6463 7.62856 26.4363 6.83607 26.4363 5.85849C26.4363 4.88092 25.6463 4.08843 24.6718 4.08843C23.6973 4.08843 22.9073 4.88092 22.9073 5.85849C22.9073 6.83607 23.6973 7.62856 24.6718 7.62856Z" fill="#A0616A"/>
<path d="M23.7934 4.67205C23.7934 4.67205 23.5334 3.8028 23.9667 3.8028C24.3999 3.8028 26.133 3.88973 26.3063 4.06357C26.4796 4.23742 28.5303 5.98219 27.3171 7.37298C26.104 8.76376 27.3171 9.43575 27.3171 9.43575C27.3171 9.43575 28.2126 11.539 27.3461 11.7129C26.4796 11.8867 22.9252 10.8927 23.7934 9.27901C24.7355 7.52785 25.1739 4.76393 23.7934 4.67204L23.7934 4.67205Z" fill="#2F2E41"/>
<path d="M52.6668 17.5944C52.6387 17.5084 52.4264 17.5463 52.406 17.4694C52.3857 17.3928 52.5895 17.3285 52.7457 17.1125C52.7739 17.0736 52.9515 16.8281 52.8833 16.7249C52.7543 16.5293 51.8561 17.0166 51.6406 16.7431C51.5933 16.6831 51.5738 16.5801 51.4328 16.3883C51.3768 16.312 51.3408 16.2752 51.2978 16.2763C51.2368 16.2778 51.215 16.3544 51.1192 16.493C50.9754 16.7009 50.9235 16.6748 50.8288 16.8452C50.7585 16.9717 50.7502 17.0525 50.6995 17.0572C50.6278 17.064 50.5981 16.9065 50.5105 16.9004C50.421 16.8942 50.3315 17.0498 50.2871 17.1713C50.2039 17.3994 50.2554 17.5738 50.2669 17.7475C50.2793 17.9363 50.2501 18.2128 50.0456 18.5675L48.1165 21.6507C48.5308 21.0222 49.7068 19.3082 50.1806 18.6795C50.3174 18.4981 50.4644 18.3158 50.6906 18.2815C50.9084 18.2485 51.1735 18.3566 51.5434 18.3503C51.5866 18.3496 51.7068 18.346 51.7361 18.2821C51.7602 18.2292 51.7002 18.1833 51.7221 18.1336C51.7513 18.067 51.8831 18.0956 52.0627 18.0513C52.1894 18.0201 52.2754 17.9685 52.3494 17.9242C52.3717 17.9108 52.704 17.7089 52.6668 17.5944V17.5944V17.5944Z" fill="#F2F2F2"/>
<path d="M47.6141 18.3143C47.564 18.3033 47.5213 18.4187 47.4777 18.4066C47.4344 18.3945 47.4617 18.2756 47.4012 18.1364C47.3902 18.1113 47.3214 17.953 47.2512 17.9568C47.1182 17.9639 47.0975 18.5467 46.9015 18.5739C46.8585 18.5799 46.8025 18.5597 46.668 18.5738C46.6145 18.5794 46.5861 18.5865 46.5742 18.608C46.5574 18.6384 46.5886 18.6713 46.6287 18.7585C46.689 18.8892 46.6612 18.9072 46.7173 19.003C46.7589 19.0741 46.796 19.1015 46.7837 19.1279C46.7663 19.1651 46.6807 19.1343 46.6524 19.1757C46.6236 19.2179 46.6739 19.3069 46.7205 19.3638C46.8081 19.4706 46.9083 19.4955 46.9966 19.54C47.0926 19.5884 47.2194 19.6825 47.334 19.8856L48.2859 21.725C48.0979 21.3396 47.5986 20.2661 47.4277 19.8514C47.3784 19.7317 47.3316 19.6068 47.3801 19.4855C47.4268 19.3687 47.5562 19.2694 47.6599 19.0855C47.672 19.064 47.7049 19.0038 47.6821 18.9709C47.6632 18.9438 47.6234 18.9601 47.6054 18.935C47.5812 18.9013 47.6332 18.8447 47.6634 18.7435C47.6847 18.6721 47.6843 18.6149 47.6839 18.5657C47.6838 18.5508 47.6809 18.3289 47.6141 18.3143V18.3143V18.3143Z" fill="#F2F2F2"/>
<path d="M48.5638 18.7631L48.5937 18.486L48.6121 18.4686C48.697 18.3881 48.7501 18.3028 48.77 18.215C48.7732 18.2011 48.7756 18.1869 48.7782 18.1726C48.7881 18.1156 48.8004 18.0448 48.855 17.9712C48.8856 17.9302 48.9664 17.8376 49.0498 17.8699C49.0723 17.8784 49.0875 17.893 49.0981 17.9085C49.1007 17.9058 49.1034 17.9032 49.1063 17.9002C49.1423 17.8651 49.1675 17.8523 49.1918 17.8399C49.2105 17.8304 49.2297 17.8206 49.2623 17.7944C49.2766 17.7829 49.2881 17.7726 49.2977 17.764C49.327 17.7377 49.3644 17.7071 49.4156 17.7192C49.47 17.7341 49.4886 17.7861 49.501 17.8205C49.523 17.8819 49.5298 17.9242 49.5343 17.9522C49.5359 17.9624 49.5378 17.9739 49.5392 17.9776C49.5511 18.0077 49.7004 18.0155 49.7566 18.0187C49.8829 18.0256 49.9921 18.0316 50.0184 18.1183C50.0373 18.1803 49.998 18.248 49.8983 18.3248C49.8672 18.3487 49.8361 18.3652 49.8091 18.3775C49.8257 18.3933 49.839 18.4147 49.8398 18.444C49.8416 18.5132 49.7709 18.5663 49.6295 18.6021C49.5944 18.6111 49.5471 18.623 49.4853 18.6199C49.4562 18.6185 49.4307 18.614 49.4089 18.6099C49.4057 18.6223 49.3997 18.6352 49.389 18.6475C49.3576 18.6836 49.3068 18.6928 49.2378 18.6724C49.1616 18.6511 49.1015 18.6222 49.0484 18.5967C49.002 18.5746 48.9621 18.5556 48.9285 18.5505C48.8661 18.5417 48.8079 18.5804 48.7383 18.6318L48.5638 18.7631H48.5638V18.7631Z" fill="#F2F2F2"/>
<path d="M49.0618 17.1847L48.787 17.226L48.7655 17.2126C48.6664 17.1506 48.5707 17.1207 48.481 17.1236C48.4667 17.1241 48.4525 17.1253 48.438 17.1265C48.3805 17.1313 48.3091 17.1373 48.2243 17.103C48.177 17.0837 48.0672 17.0288 48.0773 16.9396C48.0797 16.9157 48.09 16.8972 48.1022 16.883C48.099 16.8812 48.0957 16.8792 48.0922 16.8771C48.0492 16.8511 48.0304 16.8299 48.0123 16.8095C47.9984 16.7938 47.984 16.7776 47.9505 16.7526C47.9359 16.7417 47.923 16.7332 47.9122 16.726C47.8795 16.7043 47.8404 16.6757 47.8391 16.6229C47.8397 16.5664 47.8851 16.5351 47.9152 16.5144C47.9688 16.4774 48.0078 16.4601 48.0336 16.4487C48.0431 16.4445 48.0537 16.4397 48.057 16.4374C48.083 16.4182 48.0526 16.2714 48.0415 16.2161C48.0161 16.0918 47.9941 15.9843 48.0711 15.9368C48.1261 15.9027 48.2013 15.9237 48.3007 16.001C48.3316 16.0251 48.3553 16.051 48.3741 16.0742C48.3851 16.054 48.4024 16.0357 48.4304 16.0275C48.4967 16.0082 48.5658 16.0634 48.6362 16.1914C48.6538 16.2233 48.6772 16.2661 48.69 16.3268C48.696 16.3555 48.6982 16.3813 48.6996 16.4035C48.7125 16.4035 48.7264 16.406 48.741 16.4133C48.7838 16.4346 48.8055 16.4816 48.8034 16.5537C48.8022 16.633 48.7895 16.6987 48.7785 16.7567C48.7688 16.8073 48.7607 16.8509 48.7642 16.8848C48.7716 16.9475 48.8236 16.9942 48.8909 17.0487L49.0618 17.1847H49.0618V17.1847Z" fill="#F2F2F2"/>
<path d="M49.0988 16.3569L49.1287 16.0797L49.1471 16.0623C49.232 15.9818 49.2851 15.8966 49.305 15.8088C49.3082 15.7948 49.3107 15.7807 49.3132 15.7664C49.3231 15.7094 49.3354 15.6385 49.39 15.565C49.4206 15.524 49.5014 15.4313 49.5848 15.4637C49.6073 15.4722 49.6225 15.4868 49.6331 15.5023C49.6357 15.4996 49.6384 15.4969 49.6413 15.494C49.6773 15.4589 49.7025 15.4461 49.7268 15.4337C49.7455 15.4241 49.7647 15.4143 49.7973 15.3882C49.8116 15.3767 49.8231 15.3664 49.8327 15.3577C49.862 15.3315 49.8994 15.3008 49.9506 15.313C50.005 15.3279 50.0236 15.3799 50.036 15.4143C50.058 15.4757 50.0648 15.5179 50.0693 15.5459C50.071 15.5562 50.0728 15.5677 50.0743 15.5714C50.0861 15.6015 50.2354 15.6093 50.2916 15.6125C50.4179 15.6194 50.5271 15.6253 50.5534 15.7121C50.5723 15.7741 50.533 15.8418 50.4333 15.9186C50.4022 15.9425 50.3711 15.9589 50.3441 15.9713C50.3607 15.987 50.374 16.0085 50.3748 16.0377C50.3766 16.1069 50.3059 16.16 50.1645 16.1958C50.1294 16.2048 50.0821 16.2167 50.0203 16.2137C49.9912 16.2123 49.9657 16.2078 49.9439 16.2036C49.9407 16.2161 49.9347 16.229 49.924 16.2412C49.8926 16.2774 49.8418 16.2866 49.7728 16.2662C49.6966 16.2449 49.6365 16.216 49.5834 16.1905C49.537 16.1684 49.4971 16.1494 49.4635 16.1442C49.4011 16.1355 49.3429 16.1741 49.2733 16.2256L49.0988 16.3569H49.0988V16.3569Z" fill="#F2F2F2"/>
<path d="M48.2077 21.6665L48.1592 21.6184L48.16 21.5499L48.1592 21.6184L48.0916 21.6112C48.092 21.6048 48.0915 21.5899 48.091 21.5667C48.0884 21.4392 48.0804 21.0512 48.1342 20.4551C48.1718 20.0389 48.2347 19.6165 48.321 19.1994C48.4075 18.7815 48.4972 18.4707 48.5693 18.2208C48.6237 18.0324 48.6786 17.8536 48.7322 17.6795C48.8752 17.2143 49.0103 16.7749 49.0939 16.2737C49.1127 16.1618 49.1515 15.9289 49.072 15.654C49.0258 15.4946 48.9467 15.3445 48.8369 15.2081L48.9432 15.122C49.0644 15.2727 49.1518 15.4389 49.2031 15.6159C49.2913 15.9207 49.249 16.1745 49.2286 16.2964C49.1435 16.8065 49.0071 17.2501 48.8626 17.7198C48.8093 17.8933 48.7546 18.0712 48.7004 18.2589C48.629 18.5065 48.5401 18.8146 48.4547 19.2271C48.3694 19.6393 48.3073 20.0565 48.2701 20.4674C48.217 21.056 48.225 21.4382 48.2276 21.5638C48.2289 21.6308 48.2292 21.6449 48.2077 21.6665V21.6665V21.6665Z" fill="#F2F2F2"/>
<path d="M48.5452 15.3658C48.5398 15.3646 48.5343 15.3632 48.5288 15.3616C48.4167 15.3301 48.3267 15.2384 48.2614 15.0892C48.2308 15.0191 48.2236 14.9452 48.2092 14.798C48.207 14.7753 48.197 14.6604 48.2092 14.5081C48.2172 14.4087 48.2279 14.3687 48.2549 14.3373C48.2848 14.3024 48.3252 14.2824 48.3679 14.2723C48.3691 14.2591 48.3733 14.2463 48.3819 14.234C48.417 14.1834 48.4757 14.2042 48.5076 14.215C48.5237 14.2208 48.5437 14.2282 48.5662 14.232C48.6016 14.2381 48.6227 14.2319 48.6547 14.2226C48.6853 14.2137 48.7234 14.2026 48.7759 14.2035C48.8797 14.205 48.9565 14.2518 48.9819 14.2672C49.1153 14.3476 49.1613 14.4759 49.2147 14.6244C49.2252 14.6542 49.2604 14.7618 49.2686 14.9004C49.2745 15.0004 49.2614 15.0414 49.2465 15.0706C49.2159 15.1308 49.169 15.1587 49.0528 15.2174C48.9313 15.2788 48.8704 15.3096 48.8204 15.3254C48.7041 15.362 48.6311 15.385 48.5452 15.3658V15.3658V15.3658Z" fill="#F2F2F2"/>
<path d="M14.114 16.869L14.0247 14.0452C14.0233 13.9994 14.0412 13.9547 14.074 13.9228C14.1068 13.8908 14.1518 13.874 14.1975 13.8768L16.4312 14.0112C16.4764 14.0138 16.5187 14.0355 16.5474 14.0705C16.5761 14.1055 16.5891 14.1514 16.5831 14.1963L16.2052 17.003C16.1938 17.0879 16.1181 17.1499 16.0328 17.1443L14.2662 17.0271C14.2483 17.0259 14.2312 17.0219 14.2154 17.0155C14.157 16.9918 14.1161 16.9355 14.114 16.869V16.869Z" fill="#009092"/>
<path d="M14.0275 13.781C14.0588 13.7777 14.1006 13.7737 14.1509 13.7694C14.1374 13.7444 14.1319 13.7147 14.1377 13.6842L14.1776 13.4727C14.1879 13.4178 14.232 13.3757 14.2872 13.3683C14.6161 13.3242 15.7474 13.2045 16.4597 13.5287C16.5043 13.549 16.533 13.5935 16.5344 13.6426L16.5409 13.8682C16.5417 13.8961 16.5336 13.922 16.5195 13.9434C16.5787 13.9594 16.6377 13.9763 16.6963 13.9947C16.733 14.0063 16.7592 14.0387 16.7636 14.0771L16.7747 14.1732C16.7817 14.2342 16.7319 14.2866 16.6708 14.2825L14.0003 14.1016C13.9395 14.0974 13.8972 14.0393 13.9118 13.98L13.9426 13.8552C13.9525 13.815 13.9865 13.7854 14.0275 13.781V13.781Z" fill="#3F3D56"/>
<path d="M7.3915 8.85598L7.30227 6.03214C7.30082 5.98631 7.31878 5.94168 7.35155 5.90971C7.38435 5.87772 7.42934 5.86095 7.475 5.86369L9.70877 5.99809C9.7539 6.00078 9.79624 6.02243 9.82494 6.05746C9.85366 6.09247 9.86665 6.13831 9.8606 6.18324L9.48272 8.98989C9.47129 9.07482 9.39558 9.13688 9.31036 9.13121L7.54371 9.01401C7.52579 9.01282 7.50872 9.00882 7.49292 9.00241C7.43457 8.97873 7.3936 8.92247 7.3915 8.85598V8.85598Z" fill="#009092"/>
<path d="M7.30504 5.76798C7.33629 5.76468 7.37815 5.76062 7.42841 5.75639C7.41497 5.73129 7.40947 5.70161 7.41522 5.67115L7.45511 5.45963C7.46546 5.40473 7.50955 5.36265 7.56475 5.35524C7.89366 5.31113 9.02493 5.19143 9.73727 5.51562C9.78184 5.53591 9.81051 5.58044 9.81193 5.62952L9.81844 5.85517C9.81925 5.88308 9.81117 5.90893 9.797 5.93037C9.85622 5.94635 9.91525 5.96324 9.9738 5.98166C10.0105 5.9932 10.0368 6.02569 10.0412 6.06401L10.0522 6.16013C10.0593 6.22112 10.0094 6.27356 9.94835 6.26942L7.27784 6.0885C7.21707 6.08438 7.17474 6.0262 7.18937 5.96689L7.22013 5.84211C7.23005 5.8019 7.26398 5.77232 7.30504 5.76798V5.76798Z" fill="#3F3D56"/>
<path d="M42.4274 17.5831L42.3382 14.7592C42.3367 14.7134 42.3547 14.6688 42.3875 14.6368C42.4203 14.6048 42.4653 14.588 42.5109 14.5908L44.7447 14.7252C44.7898 14.7279 44.8322 14.7495 44.8609 14.7846C44.8896 14.8196 44.9026 14.8654 44.8965 14.9103L44.5186 17.717C44.5072 17.8019 44.4315 17.864 44.3463 17.8583L42.5796 17.7411C42.5617 17.7399 42.5446 17.7359 42.5288 17.7295C42.4705 17.7058 42.4295 17.6496 42.4274 17.5831V17.5831Z" fill="#009092"/>
<path d="M42.341 14.4951C42.3722 14.4918 42.4141 14.4877 42.4643 14.4835C42.4509 14.4584 42.4454 14.4287 42.4511 14.3982L42.491 14.1867C42.5014 14.1318 42.5455 14.0897 42.6007 14.0823C42.9296 14.0382 44.0609 13.9185 44.7732 14.2427C44.8178 14.263 44.8464 14.3075 44.8478 14.3566L44.8544 14.5823C44.8552 14.6102 44.8471 14.636 44.8329 14.6575C44.8921 14.6734 44.9512 14.6903 45.0097 14.7088C45.0464 14.7203 45.0727 14.7528 45.0771 14.7911L45.0882 14.8872C45.0952 14.9482 45.0453 15.0007 44.9843 14.9965L42.3138 14.8156C42.253 14.8115 42.2107 14.7533 42.2253 14.694L42.2561 14.5692C42.266 14.529 42.2999 14.4994 42.341 14.4951V14.4951Z" fill="#3F3D56"/>
</g>
<defs>
<clipPath id="clip0_115_2832">
<rect width="52.2011" height="37.8879" fill="white" transform="translate(0.893677 0.629311)"/>
</clipPath>
</defs>
</svg>
