<svg width="43" height="39" viewBox="0 0 43 39" fill="none" xmlns="http://www.w3.org/2000/svg">
<g clip-path="url(#clip0_115_3013)">
<path d="M47.2839 38.6072H36.2309V38.2714C36.2309 37.9799 36.3479 37.7003 36.5561 37.4941C36.7644 37.288 37.0468 37.1722 37.3413 37.1722H46.1735C46.468 37.1722 46.7504 37.288 46.9586 37.4941C47.1669 37.7003 47.2839 37.9799 47.2839 38.2714V38.6072Z" fill="#E6E6E6"/>
<path d="M41.4987 37.2392L41.8348 37.1052C38.3179 28.4631 38.6567 17.5604 41.6297 8.20776C41.9828 7.12413 42.0083 5.96193 41.7029 4.86416C41.3976 3.76638 40.7747 2.78091 39.911 2.02899C38.1854 0.504548 35.8064 0.133179 33.702 1.05972C31.6249 1.97443 31.3386 3.56772 31.3386 5.15326H31.701C31.701 3.46078 32.0663 2.17268 33.8493 1.38751C35.8216 0.519175 38.0518 0.867464 39.6697 2.2967C40.481 3.00292 41.066 3.9285 41.3528 4.95958C41.6396 5.99065 41.6157 7.08223 41.284 8.10003C38.2767 17.5606 37.9577 28.5382 41.4987 37.2392Z" fill="#E6E6E6"/>
<path d="M31.6104 10.4449C32.3109 10.4449 32.8787 9.88273 32.8787 9.18925C32.8787 8.49578 32.3109 7.93361 31.6104 7.93361C30.9099 7.93361 30.342 8.49578 30.342 9.18925C30.342 9.88273 30.9099 10.4449 31.6104 10.4449Z" fill="#E6E6E6"/>
<path d="M29.6569 11.3782V8.99906H30.0306V11.3782C30.1378 11.4211 30.2266 11.4996 30.2817 11.6002C30.3369 11.7009 30.3549 11.8173 30.3329 11.9297C30.3108 12.042 30.2499 12.1433 30.1607 12.2161C30.0714 12.2889 29.9594 12.3287 29.8438 12.3287C29.7281 12.3287 29.6161 12.2889 29.5269 12.2161C29.4377 12.1433 29.3768 12.042 29.3547 11.9297C29.3326 11.8173 29.3507 11.7009 29.4058 11.6002C29.461 11.4996 29.5497 11.4211 29.6569 11.3782Z" fill="#E6E6E6"/>
<path d="M27.8505 7.17124C27.8512 6.62433 28.0709 6.1 28.4615 5.71328C28.8522 5.32655 29.3818 5.10902 29.9343 5.1084H33.377C33.9297 5.1084 34.4597 5.32573 34.8505 5.71259C35.2412 6.09945 35.4608 6.62414 35.4608 7.17124C35.4608 7.71834 35.2412 8.24304 34.8505 8.62989C34.4597 9.01675 33.9297 9.23409 33.377 9.23409H29.9343C29.3818 9.23347 28.8522 9.01593 28.4615 8.62921C28.0709 8.24248 27.8512 7.71815 27.8505 7.17124Z" fill="#009092"/>
<path d="M22.9998 19.9457C23.3455 15.5677 25.1128 13.4819 23.9812 12.1738C22.8972 10.9208 19.8438 11.1796 17.8829 12.382C12.5937 15.6249 10.656 28.55 17.4623 34.8649C23.93 40.8657 36.1875 38.9438 38.9115 34.0322C39.5471 32.8862 40.052 30.8772 39.1218 29.6606C36.8123 26.6399 28.4154 32.1111 24.6821 28.6891C22.4696 26.661 22.8101 22.3483 22.9998 19.9457Z" fill="#3F3D56"/>
<path d="M27.0429 17.7707C26.9145 17.8292 26.8141 17.935 26.7633 18.0656C26.7124 18.1962 26.715 18.3413 26.7706 18.4701C26.7823 18.4961 26.7962 18.521 26.8121 18.5448L25.6768 20.0454L26.2433 20.8835L27.5739 18.6615C27.6682 18.5887 27.7355 18.487 27.7653 18.3724C27.7951 18.2578 27.7857 18.1366 27.7387 18.0278C27.7113 17.9662 27.6719 17.9105 27.6227 17.8639C27.5736 17.8173 27.5157 17.7808 27.4523 17.7564C27.3889 17.7319 27.3212 17.7201 27.2532 17.7216C27.1852 17.723 27.1182 17.7377 27.0559 17.7648C27.0515 17.7667 27.0472 17.7687 27.0429 17.7707Z" fill="#FFB6B6"/>
<path d="M27.042 20.3579C27.1163 20.4232 26.9102 20.5037 26.6922 20.3767C26.6298 20.3399 26.6032 20.3246 26.5962 20.3343C26.5786 20.3586 26.681 20.5377 26.6536 20.9353C26.6368 21.1726 26.2387 21.6188 25.7865 22.0539C25.1753 22.6423 24.4645 23.2099 24.4645 23.2099L24.215 23.0122L21.5983 20.9353L21.1567 20.3302C21.1972 20.0912 21.2579 19.8561 21.3383 19.6272C21.449 19.3105 21.5806 19.0013 21.7322 18.7016C21.8135 18.5385 21.8969 18.383 21.9769 18.2401L23.3788 19.7695L24.5536 21.0505C24.5536 21.0505 24.8956 20.5051 25.1606 20.3566C25.1944 20.3352 25.2328 20.3221 25.2728 20.3184C25.5405 20.3059 25.5566 20.1616 25.2461 19.8472C24.9356 19.5329 25.3274 19.8264 25.6036 19.7417C25.8798 19.6571 25.6036 19.7417 25.6618 19.5301C25.72 19.3184 26.4945 18.8938 26.4945 18.8938L26.5268 18.9222L27.1121 19.4336L27.2796 19.5801C27.2796 19.5801 27.0966 20.0769 27.0462 20.1817C26.9957 20.2865 26.9684 20.292 27.042 20.3579Z" fill="#009092"/>
<path d="M42.4712 29.9976L42.4997 29.2321L39.5311 28.759L39.489 29.8886L42.4712 29.9976Z" fill="#FFB6B6"/>
<path d="M41.9323 30.228L41.9042 29.0025L42.4334 29.0218L43.2878 27.8889C43.33 27.8329 43.3891 27.7918 43.4566 27.7714C43.5241 27.7511 43.5964 27.7527 43.6629 27.7759C43.7294 27.7991 43.7867 27.8428 43.8264 27.9005C43.8661 27.9583 43.8861 28.0271 43.8835 28.0968L43.8292 29.5527L43.2964 29.7845L43.8162 29.9016L43.7957 30.4505L41.9323 30.228Z" fill="#2F2E41"/>
<path d="M25.7633 30.2956L35.1661 30.5316C35.1661 30.5316 39.2266 30.7638 40.1793 30.1502L41.1839 30.0247L41.2384 28.5638C41.2384 28.5638 40.624 28.5683 40.2708 28.4054C39.9176 28.2424 40.1631 28.0431 39.8263 28.2391C39.4896 28.4351 39.5252 28.4587 39.2648 28.3686C39.0044 28.2785 27.0647 26.4769 27.0647 26.4769L25.7633 30.2956Z" fill="#2F2E41"/>
<path d="M38.1537 29.6616L38.7005 29.1197L36.8493 26.774L36.0423 27.5739L38.1537 29.6616Z" fill="#FFB6B6"/>
<path d="M37.6003 29.1902L38.4217 28.2728L38.7963 28.6433L40.2011 28.388C40.2704 28.3754 40.3421 28.3851 40.4055 28.4156C40.4689 28.4461 40.5208 28.4959 40.5537 28.5578C40.5865 28.6196 40.5985 28.6902 40.5879 28.7592C40.5773 28.8282 40.5447 28.8921 40.4949 28.9415L39.4549 29.9722L38.905 29.7834L39.2057 30.2193L38.8136 30.6079L37.6003 29.1902Z" fill="#2F2E41"/>
<path d="M22.0536 25.1977L22.1471 27.3488C22.2571 29.8811 25.0742 31.4138 27.2587 30.0916C27.2989 30.0672 27.3393 30.042 27.3798 30.0159C27.3798 30.0159 28.208 29.7957 28.1828 29.4471C28.1577 29.0984 28.36 28.9287 28.539 29.0238C28.7181 29.1189 31.0622 25.8255 31.0622 25.8255C31.0622 25.8255 35.9325 28.2305 37.007 28.7967C37.007 28.7967 38.0172 27.2331 37.9439 27.2495C37.8707 27.2659 31.9187 23.1418 31.9187 23.1418C31.9187 23.1418 30.9491 22.1703 29.7463 22.8118C29.7212 22.906 29.7426 22.9093 29.7426 22.9093L25.7693 26.1144L25.2079 25.0589L22.0536 25.1977Z" fill="#2F2E41"/>
<path d="M25.7999 22.5084C25.7924 22.6078 25.7781 22.7065 25.7571 22.804C25.7285 22.9451 25.6824 23.0822 25.6198 23.212C25.6198 23.212 25.6197 23.3571 25.3394 23.8428C25.059 24.3286 25.4095 24.1204 25.6198 24.4812C25.83 24.8414 25.6197 24.6755 25.3863 24.9073C25.3191 24.9747 25.2714 25.0588 25.2481 25.1507C25.2248 25.2425 25.2268 25.3389 25.2538 25.4298C25.2538 25.4298 22.2425 25.4319 21.6818 25.2237C21.121 25.0155 20.9934 23.8428 21.496 23.7269C21.9979 23.611 21.3439 23.4958 21.0488 23.2287C20.7537 22.9615 21.3439 22.5244 21.3439 22.5244C21.3439 22.5244 21.1007 22.1087 21.121 20.7132C21.1239 20.5849 21.1358 20.4569 21.1568 20.3302C21.1972 20.0912 21.2579 19.8561 21.3383 19.6272C21.449 19.3105 21.5806 19.0013 21.7322 18.7016C21.8136 18.5385 21.897 18.383 21.9769 18.2401C21.9895 18.2179 22.0014 18.1964 22.014 18.1749C22.1661 17.9084 22.3049 17.6905 22.3968 17.551C22.4675 17.4428 22.5103 17.3817 22.5103 17.3817L23.0206 16.5032L24.7239 17.2936L24.6272 18.5864L24.9209 19.5613L25.0562 20.0103L25.1606 20.3566L25.3218 20.893C25.3218 20.893 25.2777 20.895 25.3302 20.9665C25.5724 21.2852 25.7293 21.6592 25.7866 22.0539C25.8068 22.2045 25.8112 22.3568 25.7999 22.5084Z" fill="#009092"/>
<path d="M30.7189 22.6477L30.6869 22.6375L26.6101 21.3379L28.1124 16.4588C28.1423 16.3616 28.1941 16.2725 28.2639 16.198C28.3337 16.1236 28.4196 16.0657 28.5153 16.029C28.6109 15.9922 28.7137 15.9773 28.816 15.9856C28.9182 15.9939 29.0173 16.025 29.1056 16.0767L31.7109 17.6005C31.9171 17.7209 32.074 17.9093 32.1542 18.1327C32.2343 18.3561 32.2326 18.6003 32.1494 18.8225L30.7189 22.6477Z" fill="#2F2E41"/>
<path d="M30.7354 22.9579L26.6258 21.6478L28.1281 16.7687C28.158 16.6716 28.2098 16.5824 28.2796 16.5079C28.3494 16.4335 28.4353 16.3757 28.531 16.3389C28.6266 16.3021 28.7294 16.2873 28.8317 16.2955C28.9339 16.3038 29.033 16.335 29.1213 16.3866L31.8509 17.7358C32.261 17.9755 32.2514 18.5962 32.061 19.1054L30.7354 22.9579Z" fill="#009092"/>
<path d="M30.324 23.311C30.2294 23.3639 30.1246 23.3967 30.0165 23.4073C29.9084 23.418 29.7992 23.4063 29.6959 23.3729L27.0691 22.5355C26.8676 22.4703 26.6998 22.3297 26.6016 22.1437C26.5034 21.9577 26.4825 21.741 26.5435 21.54L27.8604 17.2629C27.8867 17.1774 27.93 17.098 27.9877 17.0293C28.0454 16.9607 28.1164 16.9041 28.1965 16.8629C28.2766 16.8218 28.3642 16.7969 28.4541 16.7897C28.5441 16.7825 28.6346 16.7931 28.7203 16.821L31.4424 17.7058C31.5721 17.748 31.692 17.8154 31.7949 17.9042C31.8979 17.993 31.9818 18.1013 32.0417 18.2227C32.1016 18.3441 32.1364 18.4762 32.1439 18.6112C32.1514 18.7461 32.1315 18.8812 32.0854 19.0084L30.6774 22.8946C30.6141 23.071 30.4886 23.2189 30.324 23.311Z" fill="#3F3D56"/>
<path d="M24.6276 16.5182C25.6667 16.5182 26.5091 15.6843 26.5091 14.6557C26.5091 13.627 25.6667 12.7931 24.6276 12.7931C23.5886 12.7931 22.7462 13.627 22.7462 14.6557C22.7462 15.6843 23.5886 16.5182 24.6276 16.5182Z" fill="#FFB6B6"/>
<path d="M18.2655 16.5463C18.4382 16.8776 18.7213 17.1396 19.0668 17.2878C19.2047 17.35 19.3497 17.3954 19.4986 17.4231C19.5407 17.2578 19.6081 17.0999 19.6984 16.9548C19.6683 17.1184 19.6683 17.2859 19.6984 17.4495C19.9253 17.4679 20.1536 17.4398 20.369 17.3671C20.5807 17.2958 20.7726 17.1767 20.9296 17.0193C21.0866 16.8618 21.2044 16.6703 21.2736 16.4599C21.4235 15.9662 21.262 15.4389 21.2493 14.9235C21.2362 14.4082 21.4834 13.7917 22.0002 13.728C22.3938 13.6793 22.3451 13.7171 22.628 13.9924C22.2324 14.4274 23.1968 16.3542 23.7142 16.269C24.0068 16.2209 24.2221 15.9909 24.28 15.9989C24.5763 16.7173 23.685 17.7361 24.3919 18.0706L24.3395 18.0019C23.9694 17.3967 25.0643 16.3746 24.6943 15.7694C24.5911 15.6001 24.4839 15.4017 24.5477 15.2144C24.6083 15.0363 24.9151 14.98 24.9798 15.142C24.8746 14.7706 25.1683 14.3346 25.5584 14.2967C25.905 14.2629 25.885 14.3606 26.2154 14.4499C26.2577 14.3089 26.3185 14.1742 26.3964 14.049C26.37 14.1918 26.3668 14.3378 26.3868 14.4816C26.506 14.4957 26.6265 14.4704 26.7297 14.4097C27.0349 14.2286 27.044 13.7612 26.8343 13.4767C26.6243 13.1921 26.2726 13.0516 25.9332 12.9453C25.9301 12.2348 23.9989 11.8946 23.6437 12.5552C23.6072 12.0204 22.9879 11.6601 22.4544 11.7509C21.9208 11.8418 21.5 12.2653 21.2433 12.7373C20.9868 13.209 20.8594 13.7371 20.6716 14.2395C20.4838 14.7419 20.2153 15.2428 19.7655 15.5409C19.3159 15.8386 18.6476 15.8657 18.2721 15.4798C18.1865 15.6446 18.1412 15.827 18.1401 16.0123C18.139 16.1976 18.1819 16.3805 18.2655 16.5463Z" fill="#2F2E41"/>
<path d="M20.196 25.0636C20.2349 25.0328 20.2772 25.0063 20.322 24.9846C21.0421 24.6298 23.2815 23.7088 25.0326 23.7466C28.4018 23.8193 32.6896 27.5003 31.6917 29.9723C30.9324 31.8532 27.1574 32.9233 24.4017 32.0674C20.5413 30.8684 19.0176 25.9937 20.196 25.0636Z" fill="#3F3D56"/>
<path d="M6.20901 38.6143C5.10808 38.4087 4.13357 33.4986 6.2996 31.0804C7.04172 30.2519 7.96741 29.8913 9.19875 29.5557C16.2859 27.6241 21.6915 29.465 22.4179 29.9145C23.1427 30.3629 24.4133 37.1197 22.7885 38.0761C21.8743 38.6143 20.0623 38.8833 19.1646 38.2555C17.8435 37.3317 20.0609 34.9355 19.074 33.3226C17.954 31.4923 12.0566 30.8758 9.09994 32.6948C5.94546 34.6355 12.4521 39.7802 6.20901 38.6143Z" fill="#F2F2F2"/>
<path d="M13.5696 30.2661H9.36373C8.32547 29.2811 7.5831 28.3317 8.17745 27.5437C8.17745 27.3172 8.26834 27.0999 8.43014 26.9398C8.59194 26.7796 8.81138 26.6896 9.0402 26.6896H13.8932C14.122 26.6896 14.3414 26.7796 14.5032 26.9398C14.665 27.0999 14.7559 27.3172 14.7559 27.5437C14.9822 28.4416 14.578 29.3492 13.5696 30.2661Z" fill="#CCCCCC"/>
<path d="M12.8143 25.6144C12.7744 25.6162 12.7349 25.6058 12.7011 25.5847C12.6674 25.5635 12.641 25.5326 12.6256 25.4961C12.6102 25.4596 12.6065 25.4193 12.615 25.3807C12.6235 25.3421 12.6438 25.3069 12.6731 25.2801L12.6865 25.2276C12.6847 25.2233 12.6829 25.2191 12.6811 25.2149C12.6409 25.1209 12.5736 25.0408 12.4875 24.9846C12.4014 24.9283 12.3005 24.8985 12.1974 24.8989C12.0943 24.8993 11.9936 24.9298 11.9079 24.9867C11.8223 25.0435 11.7555 25.1242 11.716 25.2185C11.5582 25.5949 11.3572 25.9719 11.3077 26.3698C11.2859 26.5457 11.2951 26.724 11.3349 26.8968C10.9641 26.0962 10.7716 25.226 10.7704 24.3452C10.7703 24.1242 10.7827 23.9034 10.8075 23.6838C10.8281 23.5037 10.8565 23.3249 10.8929 23.1474C11.0917 22.1843 11.5183 21.2817 12.1378 20.5135C12.4377 20.3516 12.6802 20.1025 12.8327 19.7999C12.8879 19.6911 12.9269 19.575 12.9485 19.4551C12.9147 19.4595 12.821 18.9495 12.8465 18.9183C12.7994 18.8474 12.715 18.8122 12.6635 18.7431C12.4075 18.3995 12.0547 18.4595 11.8706 18.9265C11.4772 19.1231 11.4733 19.449 11.7147 19.7626C11.8683 19.962 11.8894 20.2319 12.0242 20.4455C12.0103 20.463 11.9959 20.48 11.982 20.4976C11.7286 20.8202 11.5077 21.1666 11.3226 21.5319C11.3676 21.1227 11.3139 20.7088 11.1658 20.3241C11.0157 19.9657 10.7343 19.6638 10.4866 19.3539C10.189 18.9817 9.57884 19.1442 9.52642 19.616C9.52591 19.6206 9.52541 19.6251 9.52493 19.6297C9.56173 19.6503 9.59775 19.6721 9.63299 19.6951C9.67727 19.7244 9.71157 19.7663 9.73142 19.8152C9.75126 19.8641 9.75572 19.9178 9.7442 19.9693C9.73268 20.0207 9.70573 20.0676 9.66687 20.1036C9.62801 20.1396 9.57906 20.1632 9.52644 20.1713L9.52105 20.1721C9.53416 20.3034 9.55733 20.4335 9.59037 20.5613C9.27255 21.778 9.95869 22.2212 10.9384 22.2411C10.96 22.2521 10.9811 22.2631 11.0027 22.2735C10.8167 22.7954 10.7 23.339 10.6556 23.8907C10.6305 24.2162 10.6319 24.5432 10.66 24.8684L10.6584 24.8569C10.5874 24.4952 10.3925 24.1689 10.1066 23.933C9.68202 23.5877 9.08214 23.4605 8.62407 23.183C8.57538 23.152 8.51878 23.1355 8.46093 23.1354C8.40307 23.1352 8.34639 23.1515 8.29756 23.1822C8.24872 23.2129 8.20978 23.2568 8.18531 23.3087C8.16085 23.3606 8.15189 23.4183 8.15949 23.4751C8.1601 23.4791 8.16073 23.4832 8.16136 23.4872C8.22965 23.5148 8.29613 23.5465 8.36043 23.5822C8.39723 23.6027 8.43325 23.6246 8.46849 23.6476C8.51277 23.6769 8.54707 23.7188 8.56692 23.7677C8.58676 23.8166 8.59122 23.8703 8.5797 23.9218C8.56818 23.9732 8.54123 24.02 8.50237 24.0561C8.46352 24.0921 8.41457 24.1157 8.36194 24.1237L8.35655 24.1246C8.35267 24.1251 8.34934 24.1257 8.34546 24.1262C8.46214 24.402 8.62589 24.6558 8.82956 24.8766C9.02828 25.9388 9.8818 26.0396 10.7948 25.7303H10.7953C10.8955 26.1612 11.0407 26.5806 11.2284 26.9819H12.7755C12.7811 26.9649 12.7861 26.9473 12.7911 26.9303C12.6479 26.9392 12.5041 26.9307 12.363 26.905C12.4778 26.7656 12.5925 26.6251 12.7073 26.4856C12.7099 26.483 12.7123 26.4803 12.7145 26.4774C12.7728 26.406 12.8315 26.3352 12.8898 26.2638L12.8898 26.2638C12.8929 26.045 12.8676 25.8268 12.8144 25.6144L12.8143 25.6144Z" fill="#CCCCCC"/>
<path d="M18.0912 30.043C18.1169 30.117 18.1656 30.181 18.2303 30.2259C18.295 30.2707 18.3724 30.2942 18.4513 30.2928L19.9943 30.2534C20.0738 30.2519 20.1508 30.2249 20.2136 30.1765C20.2763 30.1281 20.3216 30.0609 20.3426 29.9849L20.561 27.6736C20.6384 27.7083 20.7228 27.7255 20.8078 27.7238C20.957 27.7201 21.0986 27.6579 21.2014 27.5508C21.3043 27.4438 21.3599 27.3006 21.3562 27.1529C21.3525 27.0053 21.2896 26.8651 21.1815 26.7633C21.0733 26.6615 20.9287 26.6063 20.7796 26.61C20.7456 26.6099 20.7117 26.6134 20.6784 26.6205C20.6423 26.5817 20.5984 26.551 20.5495 26.5301C20.5006 26.5092 20.4478 26.4987 20.3946 26.4992L18.0212 26.5599C18.0015 26.5606 17.9819 26.563 17.9626 26.5671C17.9106 26.5767 17.8612 26.5972 17.8178 26.6273C17.7745 26.6574 17.7381 26.6963 17.7112 26.7414C17.6843 26.7866 17.6675 26.8369 17.6619 26.889C17.6563 26.9412 17.6621 26.9939 17.6788 27.0436L18.0912 30.043ZM20.6057 27.5167L20.7611 26.9659C20.7788 26.9022 20.7792 26.8351 20.7623 26.7713C20.7698 26.7713 20.7765 26.7677 20.784 26.7677C20.8905 26.7656 20.9936 26.8053 21.0706 26.8782C21.1475 26.9511 21.1921 27.0513 21.1946 27.1568C21.1971 27.2622 21.1573 27.3643 21.0839 27.4407C21.0104 27.5171 20.9094 27.5616 20.8029 27.5644C20.734 27.5665 20.6659 27.55 20.6057 27.5167Z" fill="#CCCCCC"/>
<path d="M17.9626 26.5671C18.0132 26.8533 18.5816 27.0545 19.2652 27.0195C19.8938 26.9909 20.4078 26.7723 20.502 26.5134C20.4671 26.5032 20.4309 26.4984 20.3945 26.4992L18.0211 26.5599C18.0014 26.5606 17.9819 26.563 17.9626 26.5671Z" fill="white"/>
<path d="M0.164236 38.7227L52.1273 38.7438C52.1492 38.7438 52.1702 38.7351 52.1857 38.7198C52.2012 38.7045 52.2099 38.6837 52.2099 38.662C52.2099 38.6403 52.2012 38.6195 52.1857 38.6041C52.1702 38.5888 52.1492 38.5802 52.1273 38.5802L0.164236 38.559C0.142321 38.559 0.121303 38.5677 0.105806 38.583C0.0903098 38.5983 0.081604 38.6192 0.081604 38.6409C0.081604 38.6625 0.0903098 38.6834 0.105806 38.6987C0.121303 38.714 0.142321 38.7227 0.164236 38.7227Z" fill="#CACACA"/>
<path d="M29.3087 20.4404C29.1674 20.4456 29.0337 20.505 28.936 20.6063C28.8383 20.7075 28.7844 20.8424 28.7857 20.9824C28.7864 21.0109 28.7895 21.0392 28.7949 21.0672L27.1641 22.0203L27.3615 23.0096L29.4529 21.4649C29.5682 21.4336 29.6698 21.3654 29.7418 21.2709C29.8138 21.1764 29.8522 21.061 29.851 20.9427C29.8497 20.8753 29.835 20.8089 29.8077 20.7472C29.7805 20.6855 29.7412 20.6297 29.6921 20.583C29.6431 20.5364 29.5852 20.4997 29.5219 20.4752C29.4585 20.4506 29.3909 20.4387 29.3229 20.44C29.3182 20.4401 29.3134 20.4402 29.3087 20.4404Z" fill="#FFB6B6"/>
<path d="M27.9728 22.7127C27.9291 22.6548 27.9104 22.6306 27.9005 22.6372C27.8749 22.6525 27.8995 22.8569 27.7199 23.2132C27.4671 23.7137 24.816 24.4802 24.816 24.4802L24.4895 23.8886L23.0538 21.2889L22.559 19.2052C22.5416 19.1325 22.5332 19.0581 22.5339 18.9834C22.9751 18.6761 23.4437 18.409 23.9338 18.1857C24.1296 18.2957 24.2789 18.4718 24.3544 18.6818L25.3427 21.425L25.7371 22.5203C25.7371 22.5203 26.4327 22.0279 26.6851 22.1183C26.937 22.2092 27.0086 22.0817 26.8439 21.6734C26.6792 21.2651 26.9264 21.6854 27.2141 21.7121C27.5023 21.7392 27.2141 21.7121 27.3502 21.5389C27.4864 21.3656 28.3666 21.2681 28.3666 21.2681L28.3853 21.3068L28.7264 22.0014L28.824 22.201C28.824 22.201 28.4624 22.5894 28.3752 22.6668C28.2875 22.7448 28.2604 22.7394 28.3033 22.8282C28.3457 22.9166 28.1243 22.9126 27.9728 22.7127Z" fill="#009092"/>
</g>
<defs>
<clipPath id="clip0_115_3013">
<rect width="52.1283" height="38.2274" fill="white" transform="translate(0.081604 0.556854)"/>
</clipPath>
</defs>
</svg>
