<svg width="38" height="42" viewBox="0 0 38 42" fill="none" xmlns="http://www.w3.org/2000/svg">
<g clip-path="url(#clip0_115_3076)">
<path d="M26.5554 1.33372C26.921 1.32462 27.2542 1.58076 27.4228 1.90074C27.5915 2.22071 27.6221 2.5938 27.6136 2.95434C27.6051 3.31487 27.5609 3.67597 27.5932 4.03521C27.6617 4.79943 28.0954 5.52405 28.7408 5.95248C28.4975 5.97107 28.2588 5.85995 28.0751 5.70171C27.8913 5.54346 27.7537 5.34071 27.6184 5.14051C27.5039 4.9711 27.3888 4.80055 27.3066 4.61379C27.1862 4.34017 27.1404 4.04121 27.0971 3.746C26.9905 3.01917 26.8923 2.29115 26.8023 1.56213" fill="#2F2E41"/>
<path d="M20.3623 40.5342L21.5959 40.534L22.1828 35.8413L20.3621 35.8414L20.3623 40.5342Z" fill="#FFB6B6"/>
<path d="M24.5889 40.5066C24.6273 40.5704 24.6475 40.7763 24.6475 40.8505C24.6475 41.0785 24.4601 41.2634 24.2288 41.2634H20.4084C20.2507 41.2634 20.1228 41.1373 20.1228 40.9817V40.8248C20.1228 40.8248 19.9338 40.3534 20.3229 39.7723C20.3229 39.7723 20.8065 40.2273 21.5291 39.5146L21.7422 39.1339L23.2847 40.2465L24.1397 40.3503C24.3268 40.373 24.4926 40.3467 24.5889 40.5066H24.5889V40.5066Z" fill="#2F2E41"/>
<path d="M25.686 39.6482L26.8853 39.9336L28.5721 35.5076L26.8022 35.0864L25.686 39.6482Z" fill="#FFB6B6"/>
<path d="M29.8012 40.5994C29.8234 40.6703 29.7941 40.8751 29.7765 40.9473C29.7222 41.1689 29.496 41.3053 29.2712 41.2518L25.5574 40.3678C25.4041 40.3313 25.3098 40.1791 25.3468 40.0279L25.3841 39.8754C25.3841 39.8754 25.3125 39.3733 25.829 38.8985C25.829 38.8985 26.1909 39.4527 27.0629 38.9271L27.3606 38.6064L28.5954 40.0448L29.4018 40.3435C29.5783 40.4089 29.7457 40.4217 29.8012 40.5994L29.8012 40.5994Z" fill="#2F2E41"/>
<path d="M32.8403 17.111C32.6104 16.9271 32.4417 16.7073 32.3474 16.4906L30.0455 14.8755L30.8568 13.8178L33.1045 15.57C33.3389 15.6163 33.5918 15.7337 33.8217 15.9176C34.3468 16.3376 34.5528 16.9452 34.2818 17.2748C34.0107 17.6043 33.3654 17.531 32.8403 17.111H32.8403Z" fill="#FFB6B6"/>
<path d="M32.4157 14.7322L32.3082 14.9491L31.7505 16.0716L31.5856 16.4029L29.9635 14.9664L28.6591 13.8117L25.593 11.0971C25.3803 10.9089 25.2764 10.6532 25.2764 10.3988C25.2764 10.0944 25.4251 9.79228 25.712 9.60877C25.8896 9.49496 26.1005 9.44313 26.3113 9.461C26.8092 9.50331 27.8121 9.59387 28.876 9.71899L29.2421 10.7641L29.0627 11.7031L28.5745 11.5607L29.0192 11.9283L32.4157 14.7322V14.7322Z" fill="#009092"/>
<path d="M22.7171 13.6242C22.9535 13.6256 23.4493 16.7835 23.0796 17.2587C22.7763 17.6485 28.3338 17.2587 28.3338 17.2587C27.8114 17.1539 28.0464 13.7801 28.6078 13.6242L25.2545 12.6113L22.7171 13.6242H22.7171Z" fill="#FFB6B6"/>
<path d="M28.087 16.8326H23.1462C23.1462 16.8326 21.0859 20.059 21.0859 26.3152L20.2401 36.3846L22.3546 36.5037L25.7616 22.854L27.634 29.5552L26.342 36.7043H28.3895L30.8133 28.643L30.3294 24.4085C30.3294 24.4085 29.8248 18.5897 28.087 16.8326V16.8326Z" fill="#2F2E41"/>
<path d="M29.2421 10.7641L29.0627 11.7031L29.0192 11.9283L28.6591 13.8117L28.1708 14.5202C28.1708 14.5202 24.6937 13.4572 23.0625 14.768L21.7506 10.5853L23.1402 7.60621L24.2276 7.01039L24.4089 6.2954H26.7125L27.0672 7.01039L28.0942 7.48705L28.876 9.71899L29.2421 10.7641L29.2421 10.7641Z" fill="#009092"/>
<path d="M28.5426 7.36323C28.3544 7.58844 28.1302 7.75304 27.9097 7.84432L26.2537 10.1014L25.1877 9.2929L26.9823 7.09033C27.0311 6.85948 27.1522 6.61101 27.3404 6.3858C27.7705 5.87132 28.3883 5.67305 28.7203 5.94296C29.0522 6.21287 28.9727 6.84874 28.5426 7.36323V7.36323Z" fill="#FFB6B6"/>
<path d="M24.0784 7.64393C24.0784 7.64393 22.3247 6.69305 21.7553 7.64393C21.2695 8.45523 20.8472 12.5545 20.7337 13.7405C20.7138 13.9487 20.7647 14.1568 20.8786 14.3332V14.3332C21.2157 14.8557 21.9639 14.9196 22.3871 14.4621L27.8146 8.59481L26.1273 7.76279L23.2348 10.7343L24.0784 7.64393Z" fill="#009092"/>
<path d="M25.2819 5.84079C26.4998 5.84079 27.487 4.86712 27.487 3.66604C27.487 2.46496 26.4998 1.49129 25.2819 1.49129C24.064 1.49129 23.0767 2.46496 23.0767 3.66604C23.0767 4.86712 24.064 5.84079 25.2819 5.84079Z" fill="#FFB6B6"/>
<path d="M26.98 2.49066C26.6362 2.71958 26.4162 3.10323 26.3603 3.67494C26.1443 3.50581 26.1123 3.19813 26.1945 2.80448C26.0443 3.20741 24.8253 5.25812 24.7449 5.90643C24.6939 6.31937 24.8613 6.7356 25.1184 7.06512C25.3588 7.37235 25.672 7.6135 25.9927 7.83978C25.3897 7.62258 24.8873 7.14441 24.6486 6.55639C24.3036 5.7074 24.5088 4.7626 24.7801 3.87315C24.7165 3.99125 24.6252 4.2068 24.5197 4.29104C24.384 4.39923 24.2232 4.36536 24.1144 4.49998C23.9821 4.66351 23.9569 4.89227 23.998 5.09791C24.0398 5.30355 24.1403 5.49184 24.2391 5.67684C22.841 5.41758 22.4253 3.84172 23.0643 2.76814C22.6556 3.4916 22.5668 4.94843 23.0869 5.59756C23.3783 5.96177 23.8003 6.24586 23.946 6.68688C24.0482 6.99658 23.9921 7.34179 23.8514 7.63662C23.7107 7.93145 23.4905 8.18252 23.2577 8.41376C23.1622 8.50874 23.0642 8.60041 22.9621 8.6896C22.8492 8.57621 22.6576 8.62985 22.6159 8.78335C22.5927 8.86864 22.5562 8.95655 22.5099 9.04638C22.0961 9.13899 21.5375 9.01044 21.4522 9.58402C21.4295 9.73699 21.1491 9.66908 20.9933 9.69386C21.0353 9.57869 20.8998 9.47676 20.8007 9.55043C20.6712 9.6467 20.5334 9.70311 20.3887 9.72689C20.0202 9.70707 19.6593 9.61457 19.3394 9.43453C20.3594 8.8077 21.2542 8.98859 21.6528 7.87036C21.7153 7.69544 21.7354 7.33057 21.7343 6.92014C21.7318 5.98957 21.5098 5.07611 21.1277 4.22528C21.081 4.12148 21.0455 4.02119 21.0302 3.93344C20.9188 3.3 21.0921 2.42953 21.3735 2.01991C21.6549 1.6111 22.1414 1.34682 22.643 1.33361C22.8934 1.32618 23.0425 1.43436 23.2635 1.31792C23.4997 1.19321 23.555 1.35673 23.7149 1.14531C24.0005 0.767889 24.487 0.572986 24.9643 0.556468C25.4417 0.53995 25.7088 0.408601 26.1426 0.605985C26.4164 0.730692 26.7318 1.42929 27.0336 1.43355C27.6584 1.44236 27.7782 1.95919 26.98 2.49066V2.49066Z" fill="#2F2E41"/>
<path d="M26.0631 7.88913C26.0393 7.8724 26.0164 7.85651 25.9927 7.83978C26.0113 7.84731 26.03 7.854 26.0486 7.85986L26.0631 7.88913Z" fill="#2F2E41"/>
<path d="M36.815 16.7289C36.467 16.3237 35.9586 16.0913 35.4202 16.0913H33.3038C32.7476 16.0913 32.2286 16.3364 31.8799 16.7635C31.5311 17.1907 31.3991 17.7431 31.5177 18.2789L31.9796 20.3645C31.8662 20.6511 31.8033 20.9625 31.8033 21.2886C31.8033 22.6935 32.9582 23.8324 34.3827 23.8324C35.8073 23.8324 36.9621 22.6935 36.9621 21.2886C36.9621 21.0118 36.9166 20.7456 36.8338 20.4961L37.2234 18.1906C37.3119 17.6668 37.1631 17.134 36.815 16.7289L36.815 16.7289ZM34.3827 18.7448C33.6322 18.7448 32.9568 19.0611 32.4855 19.5657L32.1694 18.1386C32.0941 17.7982 32.1779 17.4474 32.3995 17.1761C32.621 16.9048 32.9506 16.7492 33.3038 16.7492H35.4202C35.7621 16.7492 36.085 16.8968 36.3061 17.1541C36.5271 17.4114 36.6216 17.7498 36.5654 18.0825L36.3093 19.5979C35.8369 19.0746 35.149 18.7448 34.3827 18.7448Z" fill="#3F3D56"/>
<path d="M13.0053 35.761C12.7324 35.4433 12.3337 35.261 11.9115 35.261H10.252C9.81588 35.261 9.4089 35.4532 9.1354 35.7881C8.8619 36.1231 8.75841 36.5562 8.85145 36.9764L9.21361 38.6119C9.12471 38.8365 9.0754 39.0807 9.0754 39.3364C9.0754 40.4381 9.98095 41.3312 11.098 41.3312C12.2151 41.3312 13.1206 40.4381 13.1206 39.3364C13.1206 39.1194 13.085 38.9107 13.02 38.715L13.3255 36.9072C13.3949 36.4965 13.2782 36.0787 13.0053 35.761H13.0053ZM11.098 37.3417C10.5095 37.3417 9.97992 37.5898 9.61031 37.9854L9.36248 36.8664C9.3034 36.5995 9.36914 36.3244 9.54284 36.1117C9.71654 35.8989 9.975 35.7769 10.252 35.7769H11.9115C12.1797 35.7769 12.4329 35.8926 12.6062 36.0944C12.7795 36.2962 12.8536 36.5615 12.8096 36.8224L12.6087 38.0107C12.2383 37.6004 11.6989 37.3417 11.098 37.3417Z" fill="#3F3D56"/>
<path d="M23.4792 1.55378L23.3192 1.50491C23.3431 0.95145 23.4948 0.447583 23.7916 0L23.9516 0.0488748L23.4792 1.55378Z" fill="#009092"/>
<path d="M23.4801 1.36014L23.3773 1.49054L22.1159 0.523977L22.2187 0.393585C22.7755 0.587471 23.1819 0.922895 23.4801 1.36014V1.36014Z" fill="#009092"/>
<path d="M30.7793 39.9969C30.9523 40.0076 31.0479 39.7957 30.917 39.6721L30.904 39.6211C30.9057 39.617 30.9075 39.6129 30.9092 39.6088C31.0842 39.1974 31.6771 39.2002 31.8506 39.6122C32.0045 39.978 32.2006 40.3443 32.2488 40.731C32.2705 40.9017 32.2607 41.0755 32.2223 41.243C32.5831 40.4658 32.7729 39.6172 32.7729 38.7637C32.7729 38.5493 32.761 38.3349 32.7367 38.121C32.7167 37.946 32.6891 37.7721 32.6534 37.5998C32.4603 36.6685 32.0422 35.7814 31.4391 35.0405C31.1492 34.8842 30.9075 34.6399 30.7614 34.347C30.709 34.2414 30.6678 34.1278 30.6484 34.012C30.6814 34.0163 30.7728 33.5208 30.7479 33.4904C30.7939 33.4216 30.8762 33.3874 30.9264 33.3202C31.1761 32.9863 31.5202 33.0446 31.6998 33.4984C32.0836 33.6894 32.0873 34.0061 31.8518 34.3108C31.702 34.5046 31.6814 34.7668 31.55 34.9743C31.5635 34.9914 31.5776 35.0079 31.5911 35.025C31.8391 35.3387 32.0536 35.6758 32.2343 36.03C32.1833 35.6363 32.2587 35.1621 32.3873 34.8564C32.5337 34.5082 32.8081 34.2148 33.0497 33.9137C33.34 33.5521 33.9352 33.7099 33.9863 34.1684C33.9868 34.1728 33.9873 34.1772 33.9877 34.1817C33.9519 34.2016 33.9167 34.2229 33.8823 34.2453C33.6864 34.373 33.7541 34.6726 33.9863 34.7079L33.9915 34.7087C33.9785 34.8362 33.9564 34.9626 33.9239 35.0869C34.2339 36.2692 33.5647 36.6998 32.6091 36.7191C32.588 36.7298 32.5674 36.7405 32.5463 36.7506C32.6431 37.0194 32.7205 37.2952 32.7778 37.5747C32.8292 37.8217 32.8649 38.0713 32.8849 38.322C32.9098 38.6384 32.9076 38.9563 32.8806 39.2721L32.8822 39.2609C32.9509 38.9131 33.1424 38.5882 33.4204 38.3631C33.8345 38.0276 34.4196 37.904 34.8664 37.6344C35.0815 37.5045 35.3571 37.6723 35.3196 37.9182L35.3178 37.93C35.2512 37.9567 35.1863 37.9876 35.1236 38.0223C35.0877 38.0422 35.0525 38.0635 35.0182 38.0859C34.8223 38.2136 34.89 38.5131 35.1221 38.5485L35.1274 38.5493C35.1312 38.5498 35.1344 38.5504 35.1382 38.5509C35.0241 38.8181 34.865 39.0662 34.666 39.2801C34.4722 40.3122 33.6397 40.4101 32.7491 40.1095H32.7486C32.6512 40.5277 32.509 40.9363 32.3262 41.3257H30.8171C30.8117 41.3092 30.8069 41.2921 30.802 41.2756C30.9415 41.2841 31.0822 41.2761 31.2195 41.251C31.1076 41.1156 30.9956 40.979 30.8837 40.8435C30.881 40.8408 30.8788 40.8382 30.8766 40.8355C30.8198 40.7662 30.7625 40.6974 30.7057 40.628L30.7057 40.6279C30.7021 40.4151 30.728 40.2029 30.7793 39.997L30.7793 39.9969V39.9969Z" fill="#F2F2F2"/>
<path d="M0 41.3304C0 41.3851 0.0443856 41.429 0.0996576 41.429H35.2117C35.2669 41.429 35.3113 41.3851 35.3113 41.3304C35.3113 41.2758 35.2669 41.2319 35.2117 41.2319H0.0996576C0.0443856 41.2319 0 41.2758 0 41.3304Z" fill="#CCCCCC"/>
</g>
<defs>
<clipPath id="clip0_115_3076">
<rect width="37.2484" height="41.4284" fill="white"/>
</clipPath>
</defs>
</svg>
