<svg width="22" height="27" viewBox="0 0 22 27" fill="none" xmlns="http://www.w3.org/2000/svg">
<path d="M14.9901 4.31127C15.8236 3.30167 16.4112 1.9237 16.4112 0.532087C16.4112 0.341081 16.3975 0.150076 16.3702 0C15.0037 0.054573 13.364 0.900455 12.3938 2.04649C11.6149 2.91966 10.9043 4.31127 10.9043 5.70288C10.9043 5.92117 10.9453 6.12582 10.959 6.19404C11.041 6.20768 11.1776 6.23497 11.328 6.23497C12.5441 6.23497 14.0745 5.41637 14.9901 4.31127ZM15.9466 6.52148C13.9106 6.52148 12.2435 7.76301 11.1776 7.76301C10.0435 7.76301 8.5677 6.60333 6.7913 6.60333C3.41615 6.60333 0 9.38656 0 14.6256C0 17.9 1.25714 21.3517 2.82857 23.5755C4.1677 25.4583 5.34286 27 7.03727 27C8.70435 27 9.44224 25.8949 11.5193 25.8949C13.6236 25.8949 14.1019 26.9727 15.9466 26.9727C17.7776 26.9727 18.9938 25.2946 20.1553 23.6438C21.4398 21.7473 21.9863 19.9055 22 19.81C21.8907 19.7827 18.3925 18.3502 18.3925 14.3527C18.3925 10.8873 21.1391 9.33199 21.3031 9.2092C19.4857 6.60333 16.7118 6.52148 15.9466 6.52148Z" fill="black"/>
</svg>
