<svg width="121" height="37" viewBox="0 0 121 37" fill="none" xmlns="http://www.w3.org/2000/svg">
<g clip-path="url(#clip0_283_2696)">
<path d="M18.3943 25.814C14.3705 25.814 11.209 22.6589 11.209 18.6434C11.209 12.0465 20.1188 11.7597 24.1425 11.7597H77.3135V0H45.1235H30.1781H23.8551C6.03563 0 0 10.3256 0 18.6434C0 26.9612 8.33492 37 18.3943 37H36.7886V25.814H18.3943Z" fill="#272828"/>
<path d="M102.606 11.186C106.63 11.186 109.791 14.3411 109.791 18.3566C109.791 24.9535 100.881 25.2403 96.8575 25.2403H43.6865V36.7132H75.5891H90.5345H96.8575C114.677 36.7132 121 26.3876 121 18.0698C121 9.75194 112.665 -0.286821 102.606 -0.286821H84.2115V11.186H102.606Z" fill="#272828"/>
</g>
<defs>
<clipPath id="clip0_283_2696">
<rect width="121" height="37" fill="white"/>
</clipPath>
</defs>
</svg>
