<svg width="155" height="36" viewBox="0 0 155 36" fill="none" xmlns="http://www.w3.org/2000/svg">
<g clip-path="url(#clip0_283_2733)">
<path d="M46.5846 10.75H43.3222C43.0712 10 42.7261 9.4375 42.2556 9.125C41.7536 8.8125 41.0008 8.65625 39.9655 8.65625C38.9303 8.65625 38.397 8.78125 37.9579 9.03125C37.4246 9.3125 37.205 9.71875 37.205 10.3125C37.205 10.9062 37.5814 11.2188 38.4284 11.5625C38.9303 11.7812 39.9342 12.0625 41.4713 12.4375C43.1967 12.8437 44.4828 13.3125 45.2985 13.875C46.5219 14.625 47.1179 15.7188 47.1179 17.0938C47.1179 20.3438 44.8279 21.9375 40.2479 21.9375C35.6678 21.9375 33.7229 20.1562 33.4092 16.5938H36.6717C36.8599 17.5625 37.205 18.25 37.7069 18.6562C38.2088 19 38.9931 19.2188 40.1224 19.2188C42.4752 19.2188 43.6672 18.5625 43.6672 17.3438C43.6672 16.125 43.228 16.0625 42.3497 15.6562C41.8791 15.4375 40.8753 15.1563 39.3381 14.8125C37.55 14.4063 36.2639 13.9688 35.5424 13.5C34.3503 12.7813 33.7543 11.75 33.7543 10.4062C33.7543 9.0625 34.3189 7.90625 35.511 7.15625C36.6717 6.34375 38.1774 5.9375 40.0597 5.9375C44.075 5.9375 46.3023 7.53125 46.6474 10.75H46.5846Z" fill="#272828"/>
<path d="M53.1099 0.125V8.34375C53.6746 7.5 54.3647 6.875 55.2117 6.46875C55.9646 6.09375 56.8116 5.90625 57.7841 5.90625C59.6349 5.90625 61.0466 6.4375 61.9563 7.53125C62.8033 8.5625 63.2425 10.0938 63.2425 12.125V21.5313H59.8859V12.7188C59.8859 11.4375 59.6035 10.4063 59.133 9.75C58.5369 9.03125 57.6899 8.65625 56.5293 8.65625C55.3686 8.65625 54.647 9.0625 54.051 9.90625C53.4236 10.7188 53.1413 11.75 53.1413 13.0625V21.5625H49.7847V0.125H53.1413H53.1099Z" fill="#272828"/>
<path d="M78.7077 7.59375C79.6488 8.5625 80.1194 9.96875 80.1194 11.8438V21.5625H76.9824V19.5625C76.3863 20.3125 75.6648 20.875 74.7865 21.3125C73.814 21.75 72.6533 22 71.3357 22C70.0182 22 68.5124 21.5937 67.5713 20.7812C66.6302 19.9688 66.1597 18.9375 66.1597 17.6562C66.1597 16.375 66.8184 14.625 68.1674 13.7188C69.4222 12.8438 71.1475 12.375 73.4062 12.3125L76.7314 12.2187V11.625C76.7314 9.625 75.6335 8.65625 73.4689 8.65625C71.3044 8.65625 71.7749 8.8125 71.2103 9.15625C70.5515 9.53125 70.1123 10.125 69.9555 10.9063L66.6302 10.625C66.9439 8.9375 67.7909 7.71875 69.1085 6.9375C70.2378 6.21875 71.7749 5.90625 73.7199 5.90625C75.6648 5.90625 77.6411 6.46875 78.7077 7.59375ZM73.6571 14.6875C70.9593 14.75 69.6418 15.6875 69.6418 17.5C69.6418 19.3125 69.8613 18.4688 70.3319 18.8125C70.8025 19.1563 71.3985 19.375 72.12 19.375C73.4062 19.375 74.5041 19 75.3825 18.25C76.2609 17.5 76.7314 16.5 76.7314 15.3438V14.5938L73.6258 14.6875H73.6571Z" fill="#272828"/>
<path d="M95.2399 7.25C96.4633 8.1875 97.2162 9.59375 97.5299 11.5313H94.2046C93.9851 10.5625 93.5772 9.84375 92.9812 9.375C92.3538 8.90625 91.5382 8.65625 90.5343 8.65625C89.5305 8.65625 88.3071 9.09375 87.6169 10.0312C86.8954 10.9375 86.5503 12.25 86.5503 13.875C86.5503 15.5 86.864 16.875 87.5855 17.8125C88.2443 18.7188 89.2168 19.1875 90.503 19.1875C92.7616 19.1875 93.9851 18.0625 94.2674 15.875H97.5926C97.2476 17.9375 96.4319 19.4688 95.2399 20.4688C94.0478 21.4375 92.4793 21.9375 90.4716 21.9375C88.4639 21.9375 86.268 21.1562 84.9818 19.625C83.727 18.1562 83.0996 16.25 83.0996 13.875C83.0996 11.5 83.727 9.6875 84.9504 8.25C86.268 6.65625 88.1502 5.875 90.5343 5.875C92.9185 5.875 94.0792 6.3125 95.2712 7.1875L95.2399 7.25Z" fill="#272828"/>
<path d="M103.584 0.125V12.375L109.858 6.34375H114.187L107.411 12.6563L114.752 21.5625H110.454L105.121 14.8125L103.584 16.25V21.5625H100.228V0.125H103.584Z" fill="#272828"/>
<path d="M120.211 0.125V21.5312H116.854V0.125H120.211Z" fill="#272828"/>
<path d="M136.303 8.4375C137.527 9.96875 138.123 12.125 138.123 14.8438H126.704C126.83 16.25 127.206 17.3438 127.865 18.0938C128.524 18.8125 129.465 19.2188 130.657 19.2188C131.849 19.2188 132.508 18.9688 133.166 18.5C133.668 18.125 134.107 17.5 134.515 16.6563H137.872C137.527 18.0625 136.805 19.2812 135.739 20.2188C134.39 21.375 132.696 21.9688 130.657 21.9688C128.618 21.9688 126.579 21.25 125.261 19.875C123.849 18.4375 123.128 16.4688 123.128 13.9375C123.128 11.4062 123.787 9.78125 125.136 8.25C126.422 6.6875 128.241 5.9375 130.5 5.9375C132.759 5.9375 134.923 6.75 136.272 8.46875L136.303 8.4375ZM127.99 9.59375C127.363 10.2188 126.955 11.125 126.735 12.3438H134.578C134.296 9.875 132.947 8.65625 130.594 8.65625C128.241 8.65625 128.618 8.9375 127.959 9.59375H127.99Z" fill="#272828"/>
<path d="M155 0.125V21.5313H151.863V19.9063C150.796 21.25 149.259 21.9375 147.252 21.9375C145.244 21.9375 143.205 21.1563 141.95 19.5625C140.758 18.0938 140.193 16.1875 140.193 13.8438C140.193 11.5 140.758 9.75 141.95 8.28125C143.205 6.6875 144.93 5.90625 147.126 5.90625C149.322 5.90625 150.389 6.71875 151.675 8.40625V0.125H155.031H155ZM144.554 10.125C143.926 10.9688 143.644 12.2188 143.644 13.8438C143.644 15.4688 143.926 16.75 144.491 17.6563C145.181 18.7188 146.279 19.25 147.754 19.25C149.228 19.25 150.075 18.7188 150.796 17.6875C151.424 16.75 151.738 15.5 151.738 14.0313V13.8125C151.738 12.1875 151.33 10.9063 150.546 9.96875C149.824 9.09375 148.914 8.65625 147.848 8.65625C146.311 8.65625 145.213 9.15625 144.522 10.1563L144.554 10.125Z" fill="#272828"/>
<path d="M17.6928 25.5312V30.7812C17.6928 31.9062 16.7517 32.8438 15.6223 32.8438C13.7715 32.8438 13.6147 30.2813 13.6147 29.1563V13.9375C13.646 13.9375 10.2894 13.9375 10.2894 13.9375V23.0938C10.1326 24.3125 9.72475 25.25 9.00324 25.9063C8.37583 26.5 7.65432 26.7812 6.80733 26.7812C4.5173 26.7812 3.35661 25.5312 3.35661 23.0312V13.9375H0V23.3125C0 27.5 1.91358 29.5625 5.74074 29.5625C9.5679 29.5625 7.49747 29.375 8.25035 29C8.97187 28.6563 9.66201 28.0938 10.258 27.375V29.1563C10.258 34.2813 13.2068 36.0313 15.6223 36.0313C18.0378 36.0313 20.8612 33.6875 20.8612 30.8125V25.5625H17.6928V25.5312Z" fill="#272828"/>
<path d="M46.5846 10.75H43.3222C43.0712 10 42.7261 9.4375 42.2556 9.125C41.7536 8.8125 41.0008 8.65625 39.9655 8.65625C38.9303 8.65625 38.397 8.78125 37.9579 9.03125C37.4246 9.3125 37.205 9.71875 37.205 10.3125C37.205 10.9062 37.5814 11.2188 38.4284 11.5625C38.9303 11.7812 39.9342 12.0625 41.4713 12.4375C43.1967 12.8437 44.4828 13.3125 45.2985 13.875C46.5219 14.625 47.1179 15.7188 47.1179 17.0938C47.1179 20.3438 44.8279 21.9375 40.2479 21.9375C35.6678 21.9375 33.7229 20.1562 33.4092 16.5938H36.6717C36.8599 17.5625 37.205 18.25 37.7069 18.6562C38.2088 19 38.9931 19.2188 40.1224 19.2188C42.4752 19.2188 43.6672 18.5625 43.6672 17.3438C43.6672 16.125 43.228 16.0625 42.3497 15.6562C41.8791 15.4375 40.8753 15.1563 39.3381 14.8125C37.55 14.4063 36.2639 13.9688 35.5424 13.5C34.3503 12.7813 33.7543 11.75 33.7543 10.4062C33.7543 9.0625 34.3189 7.90625 35.511 7.15625C36.6717 6.34375 38.1774 5.9375 40.0597 5.9375C44.075 5.9375 46.3023 7.53125 46.6474 10.75H46.5846Z" fill="#272828"/>
<path d="M53.1099 0.125V8.34375C53.6746 7.5 54.3647 6.875 55.2117 6.46875C55.9646 6.09375 56.8116 5.90625 57.7841 5.90625C59.6349 5.90625 61.0466 6.4375 61.9563 7.53125C62.8033 8.5625 63.2425 10.0938 63.2425 12.125V21.5313H59.8859V12.7188C59.8859 11.4375 59.6035 10.4063 59.133 9.75C58.5369 9.03125 57.6899 8.65625 56.5293 8.65625C55.3686 8.65625 54.647 9.0625 54.051 9.90625C53.4236 10.7188 53.1413 11.75 53.1413 13.0625V21.5625H49.7847V0.125H53.1413H53.1099Z" fill="#272828"/>
<path d="M78.7077 7.59375C79.6488 8.5625 80.1194 9.96875 80.1194 11.8438V21.5625H76.9824V19.5625C76.3863 20.3125 75.6648 20.875 74.7865 21.3125C73.814 21.75 72.6533 22 71.3357 22C70.0182 22 68.5124 21.5937 67.5713 20.7812C66.6302 19.9688 66.1597 18.9375 66.1597 17.6562C66.1597 16.375 66.8184 14.625 68.1674 13.7188C69.4222 12.8438 71.1475 12.375 73.4062 12.3125L76.7314 12.2187V11.625C76.7314 9.625 75.6335 8.65625 73.4689 8.65625C71.3044 8.65625 71.7749 8.8125 71.2103 9.15625C70.5515 9.53125 70.1123 10.125 69.9555 10.9063L66.6302 10.625C66.9439 8.9375 67.7909 7.71875 69.1085 6.9375C70.2378 6.21875 71.7749 5.90625 73.7199 5.90625C75.6648 5.90625 77.6411 6.46875 78.7077 7.59375ZM73.6571 14.6875C70.9593 14.75 69.6418 15.6875 69.6418 17.5C69.6418 19.3125 69.8613 18.4688 70.3319 18.8125C70.8025 19.1563 71.3985 19.375 72.12 19.375C73.4062 19.375 74.5041 19 75.3825 18.25C76.2609 17.5 76.7314 16.5 76.7314 15.3438V14.5938L73.6258 14.6875H73.6571Z" fill="#272828"/>
<path d="M95.2399 7.25C96.4633 8.1875 97.2162 9.59375 97.5299 11.5313H94.2046C93.9851 10.5625 93.5772 9.84375 92.9812 9.375C92.3538 8.90625 91.5382 8.65625 90.5343 8.65625C89.5305 8.65625 88.3071 9.09375 87.6169 10.0312C86.8954 10.9375 86.5503 12.25 86.5503 13.875C86.5503 15.5 86.864 16.875 87.5855 17.8125C88.2443 18.7188 89.2168 19.1875 90.503 19.1875C92.7616 19.1875 93.9851 18.0625 94.2674 15.875H97.5926C97.2476 17.9375 96.4319 19.4688 95.2399 20.4688C94.0478 21.4375 92.4793 21.9375 90.4716 21.9375C88.4639 21.9375 86.268 21.1562 84.9818 19.625C83.727 18.1562 83.0996 16.25 83.0996 13.875C83.0996 11.5 83.727 9.6875 84.9504 8.25C86.268 6.65625 88.1502 5.875 90.5343 5.875C92.9185 5.875 94.0792 6.3125 95.2712 7.1875L95.2399 7.25Z" fill="#272828"/>
<path d="M103.584 0.125V12.375L109.858 6.34375H114.187L107.411 12.6563L114.752 21.5625H110.454L105.121 14.8125L103.584 16.25V21.5625H100.228V0.125H103.584Z" fill="#272828"/>
<path d="M120.211 0.125V21.5312H116.854V0.125H120.211Z" fill="#272828"/>
<path d="M136.303 8.4375C137.527 9.96875 138.123 12.125 138.123 14.8438H126.704C126.83 16.25 127.206 17.3438 127.865 18.0938C128.524 18.8125 129.465 19.2188 130.657 19.2188C131.849 19.2188 132.508 18.9688 133.166 18.5C133.668 18.125 134.107 17.5 134.515 16.6563H137.872C137.527 18.0625 136.805 19.2812 135.739 20.2188C134.39 21.375 132.696 21.9688 130.657 21.9688C128.618 21.9688 126.579 21.25 125.261 19.875C123.849 18.4375 123.128 16.4688 123.128 13.9375C123.128 11.4062 123.787 9.78125 125.136 8.25C126.422 6.6875 128.241 5.9375 130.5 5.9375C132.759 5.9375 134.923 6.75 136.272 8.46875L136.303 8.4375ZM127.99 9.59375C127.363 10.2188 126.955 11.125 126.735 12.3438H134.578C134.296 9.875 132.947 8.65625 130.594 8.65625C128.241 8.65625 128.618 8.9375 127.959 9.59375H127.99Z" fill="#272828"/>
<path d="M155 0.125V21.5313H151.863V19.9063C150.796 21.25 149.259 21.9375 147.252 21.9375C145.244 21.9375 143.205 21.1563 141.95 19.5625C140.758 18.0938 140.193 16.1875 140.193 13.8438C140.193 11.5 140.758 9.75 141.95 8.28125C143.205 6.6875 144.93 5.90625 147.126 5.90625C149.322 5.90625 150.389 6.71875 151.675 8.40625V0.125H155.031H155ZM144.554 10.125C143.926 10.9688 143.644 12.2188 143.644 13.8438C143.644 15.4688 143.926 16.75 144.491 17.6563C145.181 18.7188 146.279 19.25 147.754 19.25C149.228 19.25 150.075 18.7188 150.796 17.6875C151.424 16.75 151.738 15.5 151.738 14.0313V13.8125C151.738 12.1875 151.33 10.9063 150.546 9.96875C149.824 9.09375 148.914 8.65625 147.848 8.65625C146.311 8.65625 145.213 9.15625 144.522 10.1563L144.554 10.125Z" fill="#272828"/>
<path d="M13.6147 10.4688V5.21875C13.6147 4.09375 14.5558 3.15625 15.6851 3.15625C17.5359 3.15625 17.6928 5.71875 17.6928 6.84375V22.0625C17.6614 22.0625 21.018 22.0625 21.018 22.0625V12.9062C21.1749 11.6875 21.5827 10.75 22.3042 10.0938C22.9316 9.5 23.6531 9.21875 24.5001 9.21875C26.7901 9.21875 27.9508 10.4688 27.9508 12.9688V22.0625H31.3074V12.6875C31.3074 8.5 29.3939 6.4375 25.5667 6.4375C21.7395 6.4375 23.81 6.625 23.0571 7C22.3356 7.34375 21.6454 7.90625 21.0494 8.625V6.84375C21.0494 1.75 18.1006 0 15.6851 0C13.2696 0 10.4463 2.34375 10.4463 5.21875V10.4688H13.6147Z" fill="#272828"/>
<path d="M13.6147 10.4688V5.21875C13.6147 4.09375 14.5558 3.15625 15.6851 3.15625C17.5359 3.15625 17.6928 5.71875 17.6928 6.84375V22.0625C17.6614 22.0625 21.018 22.0625 21.018 22.0625V12.9062C21.1749 11.6875 21.5827 10.75 22.3042 10.0938C22.9316 9.5 23.6531 9.21875 24.5001 9.21875C26.7901 9.21875 27.9508 10.4688 27.9508 12.9688V22.0625H31.3074V12.6875C31.3074 8.5 29.3939 6.4375 25.5667 6.4375C21.7395 6.4375 23.81 6.625 23.0571 7C22.3356 7.34375 21.6454 7.90625 21.0494 8.625V6.84375C21.0494 1.75 18.1006 0 15.6851 0C13.2696 0 10.4463 2.34375 10.4463 5.21875V10.4688H13.6147Z" fill="#272828"/>
</g>
<defs>
<clipPath id="clip0_283_2733">
<rect width="155" height="36" fill="white"/>
</clipPath>
</defs>
</svg>
