<svg width="44" height="38" viewBox="0 0 44 38" fill="none" xmlns="http://www.w3.org/2000/svg">
<g clip-path="url(#clip0_115_3046)">
<path d="M7.28283 33.1113C5.8641 33.8673 5.25507 35.4718 5.25507 35.4718C5.25507 35.4718 6.94626 35.8506 8.36499 35.0946C9.78373 34.3386 10.3928 32.7341 10.3928 32.7341C10.3928 32.7341 8.70157 32.3553 7.28283 33.1113Z" fill="#F2F2F2"/>
<path d="M7.7496 33.6309C6.91865 34.9958 5.26816 35.5215 5.26816 35.5215C5.26816 35.5215 4.9649 33.8342 5.79585 32.4693C6.62679 31.1045 8.27728 30.5788 8.27728 30.5788C8.27728 30.5788 8.58054 32.2661 7.7496 33.6309Z" fill="#F2F2F2"/>
<path d="M34.0078 2.62637H28.974V5.57182H34.0078V2.62637Z" fill="#2F2E41"/>
<path d="M23.9869 3.10131H21.3916V2.20695C21.3916 1.86684 21.5283 1.54066 21.7717 1.30016C22.015 1.05967 22.3451 0.924561 22.6893 0.924561C23.0334 0.924561 23.3635 1.05967 23.6069 1.30016C23.8502 1.54066 23.9869 1.86684 23.9869 2.20695V3.10131ZM21.4491 3.04453H23.9295V2.20695C23.9295 1.8819 23.7988 1.57016 23.5662 1.34032C23.3337 1.11047 23.0182 0.981345 22.6893 0.981345C22.3603 0.981345 22.0449 1.11047 21.8123 1.34032C21.5797 1.57016 21.4491 1.8819 21.4491 2.20695V3.04453Z" fill="#3F3D56"/>
<path d="M25.2703 2.97831V2.62878L18.67 2.80355L18.4611 11.6569L19.4379 12.8494L25.2703 2.97831Z" fill="#3F3D56"/>
<path d="M26.4387 2.85526L19.2847 3.01614L19.4379 12.8494L26.3418 12.114L26.4387 2.85526Z" fill="#009092"/>
<path d="M32.521 34.7141H31.709L31.3227 31.6189H32.5211L32.521 34.7141Z" fill="#FFB6B6"/>
<path d="M32.728 35.492L30.1097 35.4919V35.4591C30.1098 35.192 30.2171 34.9359 30.4083 34.747C30.5994 34.5582 30.8586 34.4521 31.1289 34.452H31.1289L32.7281 34.4521L32.728 35.492Z" fill="#2F2E41"/>
<path d="M29.5404 34.7141H28.7284L28.3421 31.6189H29.5406L29.5404 34.7141Z" fill="#FFB6B6"/>
<path d="M29.7475 35.492L27.1292 35.4919V35.4591C27.1292 35.192 27.2366 34.9359 27.4277 34.747C27.6188 34.5582 27.878 34.4521 28.1483 34.452H28.1484L29.7476 34.4521L29.7475 35.492Z" fill="#2F2E41"/>
<path d="M27.1557 15.3333C27.1557 15.3333 25.9693 17.8582 27.0411 22.9404C28.1129 28.0227 28.1218 33.6022 28.1218 33.6022L29.7607 33.6286L30.6813 21.6164L31.1634 33.459H32.778L34.2011 21.8036C34.2011 21.8036 35.1375 16.5991 33.0492 15.6673L27.1557 15.3333Z" fill="#2F2E41"/>
<path d="M32.8346 6.42273L29.2462 6.09585C28.1209 6.90641 27.4893 8.36221 27.619 9.86429C27.7947 11.9009 27.7353 14.7036 26.3246 15.9212C26.3246 15.9212 30.1695 18.9201 33.5849 16.075C33.5849 16.075 32.417 12.9831 33.2189 11.7484C34.0207 10.5136 34.31 7.04455 32.8346 6.42273Z" fill="#E4E4E4"/>
<path d="M22.1573 1.39037C22.1462 1.49259 22.1581 1.59595 22.1918 1.69317C22.2256 1.7904 22.2806 1.87911 22.3528 1.95308C22.4251 2.02704 22.5128 2.08445 22.61 2.12127C22.7071 2.15809 22.8112 2.17341 22.915 2.16616L27.6529 6.53575L28.5021 5.25744L23.5778 1.36424C23.5539 1.19278 23.4673 1.03593 23.3342 0.92342C23.2011 0.810906 23.0309 0.75054 22.8558 0.753762C22.6807 0.756983 22.5129 0.823569 22.3841 0.9409C22.2554 1.05823 22.1747 1.21816 22.1573 1.39037Z" fill="#FFB6B6"/>
<path d="M26.7682 5.86073L27.8922 4.71974C27.9241 4.68728 27.9628 4.66201 28.0056 4.64565C28.0483 4.6293 28.0942 4.62224 28.1399 4.62496C28.1857 4.62768 28.2303 4.64011 28.2708 4.66142C28.3112 4.68272 28.3466 4.71239 28.3744 4.74841L29.3488 6.01054C29.516 6.17319 29.611 6.39468 29.6131 6.62647C29.6153 6.85826 29.5243 7.08142 29.3602 7.24704C29.1961 7.41265 28.9722 7.50721 28.7377 7.50997C28.5031 7.51273 28.2771 7.42347 28.109 7.26177L26.8101 6.33635C26.7729 6.30984 26.742 6.27572 26.7193 6.23633C26.6967 6.19693 26.6829 6.15317 26.6789 6.10803C26.675 6.0629 26.6809 6.01744 26.6963 5.97477C26.7117 5.93209 26.7362 5.8932 26.7682 5.86073V5.86073Z" fill="#E4E4E4"/>
<path d="M39.7596 12.0313C39.7649 11.9286 39.7473 11.8261 39.7081 11.7309C39.6689 11.6357 39.609 11.5501 39.5327 11.4802C39.4564 11.4103 39.3656 11.3578 39.2665 11.3264C39.1675 11.295 39.0627 11.2854 38.9595 11.2983L33.9832 7.1956L33.2072 8.51856L38.3427 12.1354C38.3762 12.3053 38.4716 12.4571 38.6108 12.5622C38.75 12.6672 38.9233 12.7181 39.098 12.7053C39.2726 12.6925 39.4364 12.6168 39.5584 12.4925C39.6803 12.3683 39.7519 12.2042 39.7596 12.0313Z" fill="#FFB6B6"/>
<path d="M34.9045 7.82101L33.8464 9.02194C33.8163 9.05611 33.7791 9.08347 33.7373 9.10215C33.6955 9.12083 33.6502 9.13039 33.6043 9.13019C33.5585 9.12998 33.5132 9.12002 33.4716 9.10097C33.43 9.08192 33.3931 9.05423 33.3633 9.0198L32.3194 7.81311C32.1433 7.65991 32.0359 7.44396 32.0208 7.21264C32.0056 6.98131 32.0839 6.75348 32.2384 6.57909C32.393 6.40471 32.6112 6.29801 32.8453 6.28239C33.0793 6.26677 33.3101 6.3435 33.4869 6.49576L34.8359 7.34843C34.8745 7.37286 34.9073 7.40522 34.9321 7.44331C34.9569 7.48141 34.9732 7.52434 34.9797 7.56919C34.9862 7.61404 34.9828 7.65975 34.9699 7.7032C34.9569 7.74666 34.9346 7.78684 34.9045 7.82101Z" fill="#E4E4E4"/>
<path d="M40.2652 13.7661H38.2993V13.0886C38.2993 12.831 38.4029 12.5839 38.5872 12.4018C38.7716 12.2196 39.0216 12.1173 39.2823 12.1173C39.543 12.1173 39.793 12.2196 39.9773 12.4018C40.1617 12.5839 40.2652 12.831 40.2652 13.0886L40.2652 13.7661ZM38.3428 13.7231H40.2217V13.0886C40.2217 12.8424 40.1227 12.6063 39.9465 12.4322C39.7704 12.2581 39.5314 12.1603 39.2823 12.1603C39.0331 12.1603 38.7942 12.2581 38.618 12.4322C38.4418 12.6063 38.3428 12.8424 38.3428 13.0886V13.7231Z" fill="#3F3D56"/>
<path d="M41.2373 13.6729V13.4081L36.2378 13.5406L36.0795 20.2467L36.8194 21.15L41.2373 13.6729Z" fill="#3F3D56"/>
<path d="M42.1223 13.5797L36.7034 13.7016L36.8194 21.15L42.049 20.593L42.1223 13.5797Z" fill="#009092"/>
<path d="M31.2922 5.50637C32.4627 5.50637 33.4117 4.56862 33.4117 3.41183C33.4117 2.25505 32.4627 1.31729 31.2922 1.31729C30.1216 1.31729 29.1727 2.25505 29.1727 3.41183C29.1727 4.56862 30.1216 5.50637 31.2922 5.50637Z" fill="#FFB6B6"/>
<path d="M30.3164 2.47833C31.0496 3.18841 32.3255 3.25646 33.1318 2.6285C33.3556 3.39125 33.3801 4.19762 33.203 4.97227C33.026 5.74692 32.6531 6.46457 32.1192 7.05819C32.5678 7.21834 33.0841 7.11298 33.485 6.85772C33.8859 6.60246 34.1828 6.21272 34.4068 5.79668C34.9614 4.76678 35.1003 3.50923 34.7079 2.40889C34.3155 1.30855 33.3755 0.396142 32.2334 0.100698C31.0913 -0.194746 29.7818 0.170201 29.0188 1.06043C28.2209 1.99133 28.0916 3.35535 28.4413 4.52535C28.7909 5.69536 29.5578 6.70013 30.4004 7.59173C29.9957 6.56328 29.7273 5.48741 29.602 4.3909C29.5591 4.01537 29.5341 3.62827 29.6414 3.26556C29.7488 2.90284 30.013 2.56499 30.3812 2.46308" fill="#2F2E41"/>
<path d="M43.1188 35.6154H17.8834C17.8658 35.6154 17.849 35.6085 17.8365 35.5962C17.8241 35.584 17.8171 35.5673 17.8171 35.55C17.8171 35.5326 17.8241 35.516 17.8365 35.5037C17.849 35.4914 17.8658 35.4845 17.8834 35.4845H43.1188C43.1363 35.4845 43.1532 35.4914 43.1656 35.5037C43.178 35.516 43.185 35.5326 43.185 35.55C43.185 35.5673 43.178 35.584 43.1656 35.5962C43.1532 35.6085 43.1363 35.6154 43.1188 35.6154Z" fill="#CACACA"/>
<path d="M10.7962 35.6154H0.0662346C0.0486681 35.6154 0.031822 35.6085 0.0194006 35.5962C0.00697923 35.584 0 35.5673 0 35.55C0 35.5326 0.00697923 35.516 0.0194006 35.5037C0.031822 35.4914 0.0486681 35.4845 0.0662346 35.4845H10.7962C10.8138 35.4845 10.8307 35.4914 10.8431 35.5037C10.8555 35.516 10.8625 35.5326 10.8625 35.55C10.8625 35.5673 10.8555 35.584 10.8431 35.5962C10.8307 35.6085 10.8138 35.6154 10.7962 35.6154Z" fill="#CACACA"/>
<path d="M39.2055 29.9333H37.2396V29.2559C37.2396 28.9983 37.3431 28.7512 37.5275 28.569C37.7118 28.3869 37.9618 28.2845 38.2225 28.2845C38.4832 28.2845 38.7332 28.3869 38.9176 28.569C39.1019 28.7512 39.2055 28.9983 39.2055 29.2559L39.2055 29.9333ZM37.2831 29.8903H39.1619V29.2559C39.1619 29.0097 39.063 28.7735 38.8868 28.5994C38.7106 28.4253 38.4717 28.3275 38.2225 28.3275C37.9734 28.3275 37.7344 28.4253 37.5582 28.5994C37.3821 28.7735 37.2831 29.0097 37.2831 29.2559V29.8903Z" fill="#CACACA"/>
<path d="M40.1775 29.8402V29.5754L35.178 29.7078L35.0198 36.4139L35.7597 37.3172L40.1775 29.8402Z" fill="#CACACA"/>
<path d="M41.0625 29.7469L35.6436 29.8688L35.7597 37.3172L40.9892 36.7602L41.0625 29.7469Z" fill="#E4E4E4"/>
</g>
<defs>
<clipPath id="clip0_115_3046">
<rect width="43.185" height="37.3172" fill="white"/>
</clipPath>
</defs>
</svg>
