<svg width="33" height="33" viewBox="0 0 33 33" fill="none" xmlns="http://www.w3.org/2000/svg">
<path d="M30.8976 10.6012L19.6363 1.59875C17.8976 0.201249 15.0863 0.201249 13.3638 1.5825L2.10256 10.6012C0.835065 11.6087 0.0225645 13.7375 0.298815 15.33L2.46006 28.265C2.85006 30.5725 5.06006 32.4412 7.40006 32.4412H25.6001C27.9238 32.4412 30.1501 30.5562 30.5401 28.265L32.7013 15.33C32.9613 13.7375 32.1488 11.6087 30.8976 10.6012V10.6012ZM16.5001 22.1875C15.4226 22.1875 14.3893 21.7595 13.6274 20.9976C12.8656 20.2358 12.4376 19.2024 12.4376 18.125C12.4376 17.0476 12.8656 16.0142 13.6274 15.2524C14.3893 14.4905 15.4226 14.0625 16.5001 14.0625C17.5775 14.0625 18.6108 14.4905 19.3727 15.2524C20.1346 16.0142 20.5626 17.0476 20.5626 18.125C20.5626 19.2024 20.1346 20.2358 19.3727 20.9976C18.6108 21.7595 17.5775 22.1875 16.5001 22.1875V22.1875Z" fill="black" fill-opacity="0.43"/>
</svg>
