<svg width="44" height="32" viewBox="0 0 44 32" fill="none" xmlns="http://www.w3.org/2000/svg">
<g clip-path="url(#clip0_115_2919)">
<path d="M21.1849 23.0832C22.207 23.352 22.8711 24.0146 22.668 24.563C22.465 25.1114 21.4719 25.3379 20.4494 25.0689C20.0392 24.9661 19.6641 24.782 19.3556 24.532L15.0417 23.3468L15.7445 21.6519L19.9227 23.0003C20.3452 22.9425 20.778 22.9709 21.1849 23.0832Z" fill="#FFB6B6"/>
<path d="M11.9432 10.647H11.9432C10.9146 10.5443 9.96744 11.1304 9.77582 11.9887C9.09234 15.0497 7.64069 21.6692 7.83186 21.8304C8.08074 22.0402 17.3722 24.3483 17.3722 24.3483L18.4506 22.3899L12.3117 19.872L13.658 12.5506C13.8289 11.6211 13.0511 10.7576 11.9432 10.647Z" fill="#E6E6E6"/>
<path d="M23.137 26.2672C22.1396 26.5957 21.1302 26.428 20.8823 25.8929C20.6345 25.3577 21.2422 24.6578 22.2399 24.3293C22.6364 24.1935 23.0656 24.1397 23.4918 24.1724L27.7386 22.8258L28.4457 24.5194L24.184 25.6672C23.8969 25.9348 23.5379 26.1406 23.137 26.2672Z" fill="#A0616A"/>
<path d="M29.2613 11.7306H29.2613C30.2794 11.5698 31.2711 12.101 31.5307 12.9464C32.4567 15.9618 34.4327 22.4841 34.2548 22.6557C34.0232 22.8792 24.9367 25.7084 24.9367 25.7084L23.7046 23.8156L29.629 20.9556L27.7021 13.727C27.4575 12.8093 28.1648 11.9037 29.2613 11.7306Z" fill="#E6E6E6"/>
<path d="M11.2145 11.0867L11.7205 8.42055L8.30509 7.24742L7.7991 11.3L11.2145 11.0867Z" fill="#FFB6B6"/>
<path d="M31.162 11.5064L30.656 8.84019L34.0714 7.66707L34.5774 11.7197L31.162 11.5064Z" fill="#A0616A"/>
<path d="M10.3514 9.27763C12.275 9.27763 13.8343 7.96297 13.8343 6.34124C13.8343 4.71951 12.275 3.40485 10.3514 3.40485C8.42788 3.40485 6.86853 4.71951 6.86853 6.34124C6.86853 7.96297 8.42788 9.27763 10.3514 9.27763Z" fill="#FFB6B6"/>
<path d="M10.0735 2.39346C10.1742 2.44306 10.3092 2.36802 10.3415 2.27348C10.3739 2.17895 10.3362 2.07857 10.2989 1.98536L10.111 1.5161C9.97769 1.18329 9.83624 0.83885 9.54759 0.585539C9.11193 0.203208 8.41955 0.105945 7.79628 0.176409C6.99587 0.266898 6.20614 0.632303 5.83397 1.23655C5.46181 1.84079 5.62025 2.68393 6.29273 3.06092C5.3343 3.98707 5.00021 5.01923 5.05296 6.24752C5.10571 7.47582 6.69338 8.60625 7.72874 9.47153C7.95996 9.35337 8.17016 8.79958 8.04302 8.59841C7.91587 8.39723 8.09804 8.16416 7.94057 7.97885C7.78311 7.79355 7.65136 8.08861 7.81056 7.90436C7.91102 7.78809 7.51894 7.52061 7.66826 7.45102C8.3905 7.11443 8.63072 6.35545 9.08433 5.77423C9.63148 5.07318 10.5679 4.59843 11.5589 4.51966C12.1048 4.47627 12.6814 4.55486 13.1289 4.82206C13.5763 5.08925 13.866 5.56673 13.7623 6.02067C14.031 5.79063 14.1647 5.4535 14.1143 5.13345C14.0638 4.81339 13.8303 4.51742 13.4996 4.35454C13.7007 3.79399 13.5284 3.14918 13.0618 2.7154C12.5951 2.28163 10.7021 2.35551 10.0208 2.46967" fill="#2F2E41"/>
<path d="M9.96764 4.53668C9.06529 4.61881 8.41377 5.2778 7.86361 5.88637C7.54651 6.23714 7.21436 6.62451 7.22232 7.06549C7.23036 7.51133 7.58394 7.89374 7.75292 8.31627C8.02912 9.0069 7.75993 9.82859 7.10245 10.3018C7.75211 10.4057 8.45441 9.99506 8.56657 9.44564C8.69713 8.80605 8.12205 8.18874 8.19016 7.54229C8.25016 6.97276 8.78251 6.53444 9.23508 6.10861C9.68765 5.68277 10.1127 5.11769 9.90449 4.57353" fill="#2F2E41"/>
<path d="M11.6091 10.6397L7.66594 9.73042L3.60094 11.1293L1.8588 22.7396L11.8139 23.0194V21.1466C11.8139 21.1466 13.556 19.3125 13.2242 16.6547L12.8924 13.9969L11.6091 10.6397Z" fill="#E6E6E6"/>
<path d="M13.4316 15.3607L5.63343 15.011L3.51798 20.0818C3.51798 20.0818 0.904761 23.1243 0.489965 25.3624C0.0751687 27.6006 0.324046 30.748 0.324046 30.748H12.8084L11.8139 21.1466C11.8139 21.1466 14.1358 16.8995 13.8666 16.1651C13.5975 15.4307 13.4316 15.3607 13.4316 15.3607Z" fill="#3F3D56"/>
<path d="M7.45854 9.7654H5.55048V15.7105H7.45854V9.7654Z" fill="#3F3D56"/>
<path d="M13.3486 11.0943H11.4406V15.9902H13.3486V11.0943Z" fill="#3F3D56"/>
<path d="M30.6016 11.1992L34.5447 10.29L38.6097 11.6888L40.3519 23.2991L30.3968 23.5789V21.7062C30.3968 21.7062 29.3784 19.7916 30.3553 17.2492C31.3093 14.7662 29.3183 14.5564 29.3183 14.5564L30.6016 11.1992Z" fill="#E6E6E6"/>
<path d="M28.7791 15.9203L36.5772 15.5706L38.6927 20.6414C38.6927 20.6414 39.9785 24.1035 40.3933 26.3416C40.8081 28.5798 41.8866 31.3075 41.8866 31.3075H29.4022L29.0279 22.0752L28.7791 15.9203Z" fill="#3F3D56"/>
<path d="M34.7521 16.27H36.6602V10.3249H34.7521V16.27Z" fill="#3F3D56"/>
<path d="M28.862 16.5498H30.7701V11.6538H28.862V16.5498Z" fill="#3F3D56"/>
<path d="M31.9334 9.68571C34.3425 9.68571 36.2956 8.03914 36.2956 6.00798C36.2956 3.97683 34.3425 2.33025 31.9334 2.33025C29.5242 2.33025 27.5711 3.97683 27.5711 6.00798C27.5711 8.03914 29.5242 9.68571 31.9334 9.68571Z" fill="#A0616A"/>
<path d="M36.2241 8.00306C36.2241 8.00306 34.1136 5.86787 33.2694 6.04581C32.4253 6.22374 32.9529 6.49064 32.9529 6.49064L30.8424 4.53338C30.8424 4.53338 29.154 3.99959 27.5711 5.68994C27.5711 5.68994 26.6214 4.26649 27.5711 3.46579C28.5209 2.6651 28.8374 2.75406 29.0485 2.30923C29.2595 1.8644 30.7369 1.50854 30.7369 1.50854C30.7369 1.50854 30.6521 0.868263 31.1166 1.1884C31.5811 1.50854 32.741 1.50854 32.741 1.50854C32.741 1.50854 32.7476 1.15267 33.2196 1.50854C33.6915 1.8644 34.2192 1.68647 34.2192 1.68647C34.2192 1.68647 34.2192 2.30223 34.5885 2.30573C34.9578 2.30923 35.591 1.8644 35.6965 2.22027C35.802 2.57613 36.5407 2.75406 36.6462 3.82166C36.7517 4.88925 36.2241 8.00306 36.2241 8.00306V8.00306Z" fill="#2F2E41"/>
<path d="M20.0456 13.4923L23.4229 18.8752L22.96 19.0816L19.5826 13.6987C19.5336 13.6206 19.569 13.5236 19.6617 13.4823L19.7888 13.4256C19.8815 13.3842 19.9966 13.4141 20.0456 13.4923Z" fill="#3F3D56"/>
<path d="M25.6723 20.9095C24.813 20.7227 23.9141 21.0534 23.4829 21.7073C22.943 22.5261 22.3262 23.1977 22.5328 21.5969C22.7601 19.8346 21.5338 18.4112 22.4976 17.9814C23.4613 17.5516 24.4564 18.8578 26.0228 20.0405C27.4745 21.1366 26.6373 21.1193 25.6723 20.9095Z" fill="#3F3D56"/>
<path d="M20.6988 14.5812C21.6728 14.2063 22.6918 14.3261 22.9748 14.8487C23.2577 15.3714 22.6974 16.0988 21.723 16.4738C21.3362 16.6281 20.9112 16.7021 20.4835 16.6895L16.3327 18.2342L15.5144 16.5766L19.6932 15.2297C19.9622 14.9489 20.307 14.7266 20.6988 14.5812Z" fill="#FFB6B6"/>
<path d="M3.97182 10.5203L3.97181 10.5203C3.12449 11.0226 2.88318 11.992 3.41987 12.739C5.33412 15.4031 9.49322 21.1494 9.76317 21.1618C10.1146 21.178 18.861 17.6687 18.861 17.6687L18.1138 15.6035L11.5489 17.1827L6.75575 10.973C6.14726 10.1847 4.8844 9.97932 3.97182 10.5203Z" fill="#E6E6E6"/>
<path d="M21.1139 22.8481L32.3336 17.8444L33.7109 20.0395C34.899 21.9331 34.0401 24.2837 31.7941 25.2853L28.7133 26.6593C26.4673 27.6609 23.6792 26.9368 22.4912 25.0432L21.1139 22.8481Z" fill="#009092"/>
<path d="M30.6195 26.2115C29.6456 26.5866 28.6265 26.4669 28.3435 25.9443C28.0605 25.4217 28.6206 24.6941 29.595 24.319C29.9818 24.1647 30.4068 24.0907 30.8344 24.1032L34.985 22.558L35.8036 24.2155L31.625 25.5629C31.3561 25.8437 31.0113 26.0661 30.6195 26.2115Z" fill="#A0616A"/>
<path d="M39.0611 11.4164H39.0611C40.0898 11.3137 41.0369 11.8998 41.2285 12.758C41.912 15.8191 43.3636 22.4386 43.1725 22.5997C42.9236 22.8096 33.6321 25.1176 33.6321 25.1176L32.5537 23.1593L38.6927 20.6414L37.3463 13.32C37.1754 12.3905 37.9533 11.527 39.0611 11.4164Z" fill="#E6E6E6"/>
</g>
<defs>
<clipPath id="clip0_115_2919">
<rect width="42.9397" height="31.1523" fill="white" transform="translate(0.25 0.15519)"/>
</clipPath>
</defs>
</svg>
