<svg width="25" height="25" viewBox="0 0 25 25" fill="none" xmlns="http://www.w3.org/2000/svg">
<circle cx="12.5" cy="12.5" r="12" stroke="black"/>
<path d="M12.984 6.672C13.6667 6.672 14.2693 6.80533 14.792 7.072C15.3253 7.33867 15.736 7.72267 16.024 8.224C16.3227 8.71467 16.472 9.28533 16.472 9.936C16.472 11.088 16.1147 11.936 15.4 12.48C14.696 13.0133 13.7307 13.28 12.504 13.28L12.456 15.04H11.496L11.432 12.48H11.848C12.9467 12.48 13.8107 12.3093 14.44 11.968C15.08 11.616 15.4 10.9387 15.4 9.936C15.4 9.232 15.176 8.672 14.728 8.256C14.2907 7.84 13.7093 7.632 12.984 7.632C12.2587 7.632 11.6827 7.82933 11.256 8.224C10.8293 8.61867 10.616 9.15733 10.616 9.84H9.544C9.544 9.2 9.688 8.64533 9.976 8.176C10.2747 7.696 10.68 7.328 11.192 7.072C11.7147 6.80533 12.312 6.672 12.984 6.672ZM11.976 18.08C11.7413 18.08 11.544 18 11.384 17.84C11.2347 17.68 11.16 17.4827 11.16 17.248C11.16 17.0133 11.2347 16.8213 11.384 16.672C11.544 16.512 11.7413 16.432 11.976 16.432C12.2 16.432 12.3867 16.512 12.536 16.672C12.696 16.8213 12.776 17.0133 12.776 17.248C12.776 17.4827 12.696 17.68 12.536 17.84C12.3867 18 12.2 18.08 11.976 18.08Z" fill="black"/>
</svg>
