<svg width="33" height="33" viewBox="0 0 33 33" fill="none" xmlns="http://www.w3.org/2000/svg">
<path d="M30.8975 10.6012L19.6363 1.59875C17.8975 0.201249 15.0863 0.201249 13.3638 1.5825L2.1025 10.6012C0.835004 11.6087 0.0225035 13.7375 0.298753 15.33L2.46 28.265C2.85 30.5725 5.06 32.4412 7.4 32.4412H25.6C27.9238 32.4412 30.15 30.5562 30.54 28.265L32.7013 15.33C32.9613 13.7375 32.1488 11.6087 30.8975 10.6012ZM16.5 22.1875C15.4226 22.1875 14.3892 21.7595 13.6274 20.9976C12.8655 20.2358 12.4375 19.2024 12.4375 18.125C12.4375 17.0476 12.8655 16.0142 13.6274 15.2524C14.3892 14.4905 15.4226 14.0625 16.5 14.0625C17.5774 14.0625 18.6108 14.4905 19.3726 15.2524C20.1345 16.0142 20.5625 17.0476 20.5625 18.125C20.5625 19.2024 20.1345 20.2358 19.3726 20.9976C18.6108 21.7595 17.5774 22.1875 16.5 22.1875Z" fill="#8F8F8F"/>
</svg>
