<svg width="32" height="32" viewBox="0 0 32 32" fill="none" xmlns="http://www.w3.org/2000/svg">
<g clip-path="url(#clip0_115_3105)">
<path d="M24.7441 10.0543C24.6917 10.0365 24.6461 10.0028 24.6133 9.9578C24.5805 9.91281 24.5622 9.85872 24.5608 9.80285C24.5594 9.74697 24.5751 9.69203 24.6056 9.64544C24.6361 9.59886 24.6801 9.5629 24.7315 9.54243L24.7753 9.48001C24.7752 9.47357 24.775 9.46713 24.7749 9.4607C24.7582 8.81207 22.6848 9.78575 22.4193 10.2847C22.3021 10.5053 22.2236 10.7448 22.1873 10.9925C22.1151 9.75002 22.308 8.50635 22.7527 7.34582C22.8646 7.05472 22.9925 6.77018 23.1358 6.49352C23.2535 6.2668 23.3807 6.0458 23.5176 5.83053C24.2618 4.66303 25.2692 3.69073 26.457 2.99348C26.9038 3.19904 27.3311 3.28623 27.7142 2.4062C27.7824 2.24965 27.9522 2.15774 28.0383 2.01099C27.9925 1.99961 27.9468 1.98578 27.9021 1.9715C27.8882 1.96687 27.8736 1.96197 27.8598 1.95735L27.8546 1.95557C27.8058 1.93888 27.7629 1.90829 27.7309 1.86749C27.6989 1.82669 27.6793 1.77741 27.6744 1.72559C27.6695 1.67376 27.6795 1.62161 27.7032 1.5754C27.7269 1.52918 27.7633 1.49089 27.808 1.46512C27.8358 1.4491 27.8637 1.43309 27.8915 1.4171C27.934 1.3922 27.977 1.36832 28.0195 1.34342C28.0241 1.34129 28.0286 1.33889 28.0329 1.33623C28.0817 1.30797 28.1301 1.28042 28.1789 1.25216C28.1551 1.13432 28.1048 1.02362 28.0317 0.928695C27.7773 0.603787 27.2707 0.560027 26.9167 0.767803C26.562 0.975292 26.3542 1.3805 26.2922 1.78979C26.2504 2.14239 26.2682 2.49961 26.345 2.84614C26.3182 2.86224 26.291 2.87734 26.2642 2.89344C25.7741 3.1897 25.3138 3.53382 24.8901 3.92089C25.1629 3.41398 25.0785 1.16231 24.9162 0.628514C24.7213 -0.0126493 23.8524 -0.108345 23.5458 0.486426C23.5428 0.492189 23.5398 0.497951 23.5369 0.503712C23.5739 0.549445 23.6093 0.596447 23.643 0.644718C23.6853 0.705749 23.7083 0.778258 23.7091 0.852746C23.7098 0.927233 23.6884 1.00022 23.6474 1.06216C23.6065 1.12409 23.5481 1.17207 23.4797 1.19982C23.4114 1.22757 23.3363 1.23379 23.2644 1.21766L23.257 1.21601C22.2694 1.88296 23.3864 5.07057 24.102 4.73529C23.5978 5.32822 23.1719 5.98495 22.8351 6.68897C22.6377 7.10486 22.4739 7.5362 22.3453 7.9788L22.349 7.96277C22.5948 6.98529 21.1866 4.83379 20.5751 4.7261C20.2228 4.66407 19.9069 4.52228 19.8282 4.8751C19.827 4.88073 19.8257 4.88636 19.8245 4.892C19.8986 4.96291 19.9682 5.03842 20.033 5.11808C20.07 5.16382 20.1054 5.21082 20.1391 5.25908C20.1813 5.32012 20.2043 5.39263 20.2051 5.46711C20.2059 5.5416 20.1845 5.61459 20.1435 5.67653C20.1026 5.73846 20.0441 5.78644 19.9758 5.81419C19.9074 5.84194 19.8324 5.84816 19.7605 5.83204L19.7531 5.83038C19.7478 5.82913 19.7433 5.82817 19.738 5.82693C19.062 6.71893 20.5806 9.18577 22.0823 9.18219L22.083 9.18247C21.9937 9.80082 21.9683 10.4269 22.007 11.0505L24.0012 11.8356C24.0169 11.816 24.0323 11.7954 24.0473 11.7755C23.8582 11.7146 23.6772 11.6304 23.5083 11.525C23.7269 11.3996 23.9461 11.2728 24.1647 11.1474C24.1693 11.1453 24.1738 11.1429 24.1782 11.1402C24.2894 11.0758 24.401 11.0124 24.5123 10.9479L24.5123 10.9478C24.6272 10.6613 24.7051 10.361 24.7441 10.0544L24.7441 10.0543ZM24.2088 4.61169L24.2104 4.61067L24.2083 4.61313L24.2088 4.61169ZM22.2174 8.46536L22.2152 8.41958C22.2268 8.39166 22.2376 8.36347 22.2481 8.33427C22.2511 8.32631 22.2527 8.3178 22.2558 8.30985C22.243 8.36226 22.2296 8.4144 22.2175 8.4671L22.2174 8.46536Z" fill="#F1F2F2"/>
<path d="M21.603 10.4174C21.5555 4.70757 16.9665 0.0929508 11.3107 0.0898072C5.6061 0.0866635 1.00421 4.81983 1.00421 10.5871V29.4991C1.00421 29.9874 1.19598 30.4556 1.53732 30.8009C1.87867 31.1461 2.34163 31.3401 2.82437 31.3401H21.603C27.2912 31.3401 31.9025 26.5863 31.9025 20.8329C31.9025 15.0796 27.2912 10.4174 21.603 10.4174Z" fill="#009092"/>
<path opacity="0.1" d="M21.603 10.3276C21.5555 4.61776 16.9665 0.00314075 11.3107 0C8.21821 0 5.45068 1.38928 3.56305 3.58187C5.35023 2.18784 7.54441 1.43339 9.8013 1.43688C15.4571 1.44002 20.0461 6.05464 20.0936 11.7644C25.7818 11.7644 30.393 16.4284 30.393 22.1818C30.3964 24.6913 29.5008 27.1171 27.8719 29.0101C29.1265 28.0383 30.1427 26.7872 30.8417 25.3537C31.5407 23.9203 31.9037 22.3432 31.9024 20.7449C31.9024 14.9916 27.2912 10.3276 21.603 10.3276Z" fill="black"/>
<path d="M11.9948 16.7178C11.575 15.3648 10.6205 14.1238 9.30046 13.6664C7.98031 13.209 6.04727 13.9058 5.05481 14.9062C3.23942 16.7362 3.147 23.4426 4.39425 25.4293C4.64233 25.416 5.49837 25.4062 5.74946 25.3967L6.10465 24.1993V25.3849C8.06447 25.3236 10.2458 26.9541 12.1463 25.4016C12.3293 23.9951 12.4145 18.0708 11.9948 16.7178Z" fill="#2F2E41"/>
<path d="M9.13356 20.9632C10.6972 20.9632 11.9647 19.6811 11.9647 18.0995C11.9647 16.518 10.6972 15.2359 9.13356 15.2359C7.56993 15.2359 6.30237 16.518 6.30237 18.0995C6.30237 19.6811 7.56993 20.9632 9.13356 20.9632Z" fill="#FFB7B7"/>
<path d="M11.0789 14.3706C9.99744 13.7037 8.5561 13.6845 7.45753 14.3223C6.35904 14.9601 5.64857 16.2287 5.67246 17.5097C7.25501 17.5833 8.89656 19.0866 10.6032 17.6057L11.0016 16.6196L11.2364 17.6065C11.7501 17.6064 12.2647 17.6057 12.7803 17.6044C12.8377 16.3246 12.1605 15.0375 11.0789 14.3706Z" fill="#2F2E41"/>
<path d="M11.711 16.3124C12.3607 15.0557 13.5172 14.0051 14.8964 13.791C15.2594 13.7411 15.6284 13.76 15.9846 13.8467C18.0154 14.3076 19.2859 16.3552 18.889 18.4218C18.8103 18.8317 18.7183 19.2558 18.6526 19.7267C18.6298 19.8877 18.5744 20.0421 18.4899 20.1804C18.4054 20.3187 18.2936 20.4379 18.1615 20.5306C18.0294 20.6232 17.8799 20.6874 17.7222 20.7189C17.5645 20.7505 17.4021 20.7489 17.2451 20.7141L17.2375 20.7124L16.89 20.6373C15.8572 20.416 14.6754 20.666 13.5549 20.6524C11.8848 20.632 10.7111 18.9831 11.2436 17.382C11.3712 17.0135 11.5275 16.6559 11.711 16.3124Z" fill="#E6E7E8"/>
<path d="M14.2855 21.0478C15.8491 21.0478 17.1167 19.7657 17.1167 18.1841C17.1167 16.6026 15.8491 15.3205 14.2855 15.3205C12.7219 15.3205 11.4543 16.6026 11.4543 18.1841C11.4543 19.7657 12.7219 21.0478 14.2855 21.0478Z" fill="#FFB7B7"/>
<path d="M13.0228 14.166C14.2039 13.7031 15.6259 13.942 16.5956 14.7663C17.5652 15.5905 18.0427 16.9662 17.7952 18.2227C16.2247 18.012 14.3462 19.198 12.9254 17.4352L12.7057 16.3933L12.302 17.3227C11.7965 17.2307 11.2901 17.138 10.7828 17.0445C10.9502 15.7746 11.8417 14.6289 13.0228 14.166Z" fill="#E6E7E8"/>
<path d="M21.0732 21.2177C20.941 21.112 20.7876 21.0369 20.6236 20.9976C20.4596 20.9584 20.2891 20.9559 20.1242 20.9905C19.9592 21.0251 19.8037 21.0959 19.6687 21.1978C19.5336 21.2998 19.4224 21.4304 19.3427 21.5806L11.3511 24.4205L12.1441 26.1251L19.8807 23.2087C20.139 23.3275 20.4314 23.3462 20.7024 23.2615C20.9734 23.1767 21.2043 22.9944 21.3513 22.749C21.4983 22.5035 21.5511 22.2121 21.4999 21.9299C21.4486 21.6477 21.2968 21.3943 21.0732 21.2177Z" fill="#FFB6B6"/>
<path d="M12.5336 23.0904L11.353 23.607L10.722 23.8834L10.3103 24.0633C10.1359 24.11 9.97272 24.1922 9.83073 24.3048C9.58778 24.4969 9.41772 24.7678 9.3492 25.0719C9.28067 25.376 9.31788 25.6947 9.45455 25.9743C9.59122 26.2539 9.819 26.4773 10.0995 26.6068C10.38 26.7364 10.6961 26.7642 10.9945 26.6856L13.4108 26.4063C13.4795 26.3981 13.5456 26.3751 13.6047 26.3388C13.6639 26.3025 13.7146 26.2538 13.7535 26.196C13.8333 26.0779 14.5792 25.7224 14.5431 25.5846L14.8623 25.4365L15.3255 25.2898L17.0647 24.4805L16.8017 23.4968L17.045 22.2893C17.0086 22.1531 13.0625 23.1595 12.9363 23.0993C12.8738 23.0684 12.8055 23.0516 12.7359 23.0501C12.6664 23.0485 12.5974 23.0623 12.5336 23.0904Z" fill="#3F3D56"/>
<path d="M15.9176 31.1958H4.87967C4.42173 31.1958 3.98255 31.0118 3.65874 30.6842C3.33493 30.3567 3.15302 29.9125 3.15302 29.4493V25.3392C3.15302 24.876 3.33493 24.4318 3.65874 24.1042C3.98255 23.7767 4.42173 23.5927 4.87967 23.5927L6.29168 21.5804H11.2204L15.9176 23.5927C16.1443 23.5927 16.3688 23.6379 16.5783 23.7257C16.7878 23.8134 16.9782 23.9421 17.1385 24.1042C17.2988 24.2664 17.426 24.4589 17.5128 24.6708C17.5996 24.8827 17.6442 25.1098 17.6442 25.3392V29.4493C17.6442 29.6787 17.5996 29.9058 17.5128 30.1177C17.426 30.3296 17.2988 30.5221 17.1385 30.6842C16.9782 30.8464 16.7878 30.9751 16.5783 31.0628C16.3688 31.1506 16.1443 31.1958 15.9176 31.1958Z" fill="#3F3D56"/>
<path d="M19.8692 31.1958H9.99692C9.77017 31.1958 9.54564 31.1506 9.33616 31.0628C9.12667 30.9751 8.93632 30.8464 8.77599 30.6842C8.61565 30.5221 8.48847 30.3296 8.4017 30.1177C8.31493 29.9058 8.27026 29.6787 8.27026 29.4493V25.3392C8.27026 24.876 8.45218 24.4318 8.77599 24.1042C9.0998 23.7767 9.53898 23.5927 9.99691 23.5927L12.5965 21.5804H17.5252L19.8692 23.5927C20.3272 23.5927 20.7664 23.7767 21.0902 24.1042C21.414 24.4318 21.5959 24.876 21.5959 25.3392V29.4493C21.5959 29.9125 21.414 30.3567 21.0902 30.6842C20.7664 31.0118 20.3272 31.1958 19.8692 31.1958Z" fill="#2F2E41"/>
<path d="M10.9983 30.6861C10.9051 30.8202 10.784 30.932 10.6435 31.0137C10.503 31.0953 10.3465 31.1448 10.185 31.1586C10.0235 31.1725 9.86099 31.1503 9.70889 31.0938C9.55679 31.0372 9.41879 30.9476 9.30463 30.8313L2.40863 31.0568L1.5269 31.0857C0.619957 31.1153 0.0975421 30.054 0.667578 29.3399L1.28006 28.5726L3.47072 28.9201L4.26284 28.9553L9.3595 29.1812C9.56544 29.0001 9.82987 28.9018 10.1027 28.9048C10.3755 28.9078 10.6378 29.0119 10.8398 29.1974C11.0418 29.3829 11.1695 29.6369 11.1987 29.9113C11.2279 30.1857 11.1566 30.4613 10.9983 30.6861L10.9983 30.6861Z" fill="#FFB6B6"/>
<path d="M4.91532 21.9929C4.91532 21.9929 3.60081 21.6555 2.97776 22.7407C2.47896 23.6095 0.782198 26.8953 0.429971 28.2439C-1.28865 32.4331 2.70719 30.7649 2.59539 31.1601L3.93221 28.9406C4.51306 28.6469 3.39498 29.026 3.24769 28.8153L4.27244 27.6889L5.43414 27.1013L5.8604 22.5017L4.91532 21.9929Z" fill="#3F3D56"/>
<path d="M9.73423 30.8612C9.8274 30.9953 9.94852 31.1071 10.089 31.1887C10.2296 31.2704 10.3861 31.3199 10.5476 31.3337C10.709 31.3476 10.8715 31.3254 11.0236 31.2689C11.1757 31.2123 11.3137 31.1227 11.4279 31.0064L18.3239 31.2319L19.2056 31.2607C20.1126 31.2904 20.635 30.2291 20.065 29.515L19.4525 28.7477L17.2618 29.0952L16.4697 29.1303L11.373 29.3563C11.1671 29.1752 10.9027 29.0769 10.6298 29.0799C10.357 29.0829 10.0948 29.187 9.89275 29.3725C9.69074 29.558 9.56303 29.812 9.53382 30.0864C9.5046 30.3607 9.57591 30.6364 9.73423 30.8612L9.73423 30.8612Z" fill="#FFB6B6"/>
<path d="M15.8172 22.1679C15.8172 22.1679 17.1317 21.8306 17.7548 22.9158C18.2536 23.7846 19.9503 27.0704 20.3026 28.419C22.0212 32.6082 18.0253 30.94 18.1371 31.3351L16.8003 29.1157C16.2195 28.8219 17.3376 29.2011 17.4848 28.9904L16.4601 27.8639L15.2984 27.2764L14.8721 22.6767L15.8172 22.1679Z" fill="#2F2E41"/>
</g>
<defs>
<clipPath id="clip0_115_3105">
<rect width="31.9024" height="31.3445" fill="white"/>
</clipPath>
</defs>
</svg>
